<?xml version="1.0" encoding="UTF-8"?>
<svg width="1346px" height="625px" viewBox="0 0 1346 625" version="1.1" xmlns="http://www.w3.org/2000/svg" xmlns:xlink="http://www.w3.org/1999/xlink">
    <!-- Generator: Sketch 51.1 (57501) - http://www.bohemiancoding.com/sketch -->
    <title>Group</title>
    <desc>Created with Sketch.</desc>
    <defs>
        <polygon id="path-1" points="0 0.286600896 153.957654 0.286600896 153.957654 313.242793 0 313.242793"></polygon>
        <polygon id="path-3" points="0.762555995 0.681419791 563.023981 0.681419791 563.023981 39 0.762555995 39"></polygon>
        <polygon id="path-5" points="0 594.687 609.024 594.687 609.024 0 0 0"></polygon>
        <polygon id="path-7" points="0 0.218725054 583.725724 0.218725054 583.725724 40 0 40"></polygon>
    </defs>
    <g id="Page-1" stroke="none" stroke-width="1" fill="none" fill-rule="evenodd">
        <g id="contact" transform="translate(-20.000000, -130.000000)">
            <g id="Group" transform="translate(20.000000, 130.000000)">
                <g id="Group-131" transform="translate(0.000000, 30.000000)">
                    <path d="M171.2197,314.4185 C170.3597,311.5335 170.2447,308.3725 168.5597,305.8335 C166.9707,303.4405 164.2377,301.9855 162.0147,300.0965 C153.5707,292.9195 153.4007,280.3965 156.2357,270.0045 C159.0707,259.6145 164.2637,249.5945 164.3557,238.8645 C164.4167,231.7485 162.2197,224.4955 164.1417,217.6145 C164.1777,217.4875 164.2247,217.3645 164.2627,217.2385 C159.6157,219.8145 156.0007,224.0935 154.6227,229.0265 C152.7007,235.9075 154.8987,243.1605 154.8367,250.2775 C154.7447,261.0075 149.5517,271.0265 146.7167,281.4175 C143.8817,291.8085 144.0517,304.3325 152.4957,311.5095 C154.7187,313.3985 157.4517,314.8535 159.0407,317.2465 C160.7267,319.7845 160.8407,322.9455 161.7007,325.8305 C164.1967,334.1975 173.4357,339.8745 182.6367,339.9915 C191.8367,340.1075 200.6177,335.3565 206.4817,328.6565 C208.1607,326.7365 209.6447,324.5315 210.6257,322.2025 C205.3337,326.1565 198.8597,328.6635 192.1557,328.5785 C182.9537,328.4615 173.7147,322.7845 171.2197,314.4185" id="Fill-1" fill="#EBF5FF"></path>
                    <path d="M183.33,373.5279 C184.759,350.5329 182.158,327.5949 179.954,304.7349 C177.72,281.5539 175.484,258.3739 173.25,235.1939 C173.189,234.5679 172.204,234.5619 172.266,235.1939 C174.5,258.3739 176.734,281.5539 178.97,304.7349 C181.174,327.5949 183.774,350.5329 182.346,373.5279 C182.306,374.1609 183.291,374.1589 183.33,373.5279" id="Fill-3" fill="#00FFFF"></path>
                    <path d="M170.1445,214.5476 C161.1235,216.6236 154.2425,223.6516 153.4465,233.0356 C152.9125,239.3366 154.6265,245.5746 154.2935,251.8816 C153.9115,259.1206 151.3065,265.9976 148.9615,272.7766 C145.6065,282.4736 142.5005,293.2726 146.2845,303.3526 C147.7325,307.2136 150.1245,310.1866 153.2935,312.7726 C156.6525,315.5126 158.8835,317.0816 160.2065,321.5396 C161.0395,324.3496 161.3225,327.0756 162.8315,329.6526 C173.6675,348.1686 201.9785,340.4706 210.4085,323.8376 C212.2725,320.1566 212.9855,316.0906 211.4475,312.1616 C210.5975,309.9906 209.1325,308.1506 207.9195,306.1846 C204.9615,301.3926 204.7685,296.7796 205.8915,291.3586 C207.5315,283.4436 211.7485,272.9456 204.2075,266.6156 C201.6105,264.4356 198.1335,263.6766 195.6655,261.2946 C192.7665,258.4966 191.9775,254.5596 191.7465,250.7006 C191.4095,245.0896 192.3955,239.3706 191.1345,233.8286 C188.8155,223.6376 180.3695,215.9746 170.4715,213.3186 C169.8585,213.1546 169.5975,214.1036 170.2095,214.2686 C180.1925,216.9466 188.6565,224.9076 190.4305,235.3416 C191.7395,243.0316 188.8065,251.9076 192.7485,259.0696 C194.4035,262.0756 196.9595,263.5566 199.8895,265.1516 C206.2505,268.6176 208.2525,273.6686 207.3295,280.7036 C206.1075,290.0076 201.6365,297.8786 207.0695,306.6826 C208.4655,308.9456 210.2125,311.0776 210.9455,313.6906 C212.0125,317.4976 210.7485,321.4036 208.8035,324.6826 C205.9165,329.5516 201.1775,333.5326 196.2025,336.1306 C185.8515,341.5346 171.4465,340.5606 164.3775,330.2566 C161.8275,326.5376 162.0785,322.2146 160.1885,318.3146 C158.0755,313.9536 153.1395,312.1016 150.2275,308.3876 C143.9555,300.3886 144.9595,289.1656 147.6335,279.9926 C150.8305,269.0266 155.9265,258.6846 155.2205,246.9846 C154.8145,240.2526 153.1205,233.2976 155.9725,226.8506 C158.6235,220.8596 164.1225,216.9436 170.4065,215.4976 C171.0245,215.3556 170.7625,214.4056 170.1445,214.5476" id="Fill-5" fill="#00FFFF"></path>
                    <path d="M167.8271,374.0547 L211.0261,374.0547 C211.6601,374.0547 211.6611,373.0697 211.0261,373.0697 L167.8271,373.0697 C167.1931,373.0697 167.1921,374.0547 167.8271,374.0547" id="Fill-7" fill="#00FFFF"></path>
                    <path d="M44.33,202.1695 C57.025,297.6505 79.159,391.7655 87.958,487.7835 C90.403,514.4635 91.752,541.2365 91.589,568.0325 C91.582,569.1235 93.276,569.1245 93.283,568.0325 C93.868,472.1995 74.748,377.8635 58.683,283.8155 C54.044,256.6665 49.655,229.4735 46.025,202.1695 C45.884,201.1045 44.186,201.0895 44.33,202.1695" id="Fill-9" fill="#00FFFF"></path>
                    <path d="M104.6845,453.8135 C84.2025,456.3865 64.0525,443.3485 53.2565,425.7525 C42.4615,408.1565 39.5405,386.8395 39.2935,366.1985 C39.0465,345.5565 41.2215,324.8725 39.5565,304.2965 C37.1505,274.5655 26.7685,245.5805 27.6045,215.7645 C27.7815,209.4695 28.6985,203.0325 30.2995,196.7515 C11.8795,208.8075 1.3755,233.8275 0.7285,256.9175 C-0.1065,286.7335 10.2755,315.7195 12.6815,345.4495 C14.3465,366.0255 12.1715,386.7095 12.4185,407.3515 C12.6655,427.9925 15.5855,449.3105 26.3815,466.9055 C37.1765,484.5015 57.3265,497.5405 77.8085,494.9665 C87.6925,493.7255 96.8465,489.0665 105.0945,483.4795 C124.4075,470.3975 139.9695,451.4045 147.7545,429.4895 C142.8725,434.2155 137.5825,438.5245 131.9695,442.3265 C123.7225,447.9135 114.5675,452.5715 104.6845,453.8135" id="Fill-11" fill="#EBF5FF"></path>
                    <g id="Group-15" transform="translate(0.000000, 182.687000)">
                        <mask id="mask-2" fill="white">
                            <use xlink:href="#path-1"></use>
                        </mask>
                        <g id="Clip-14"></g>
                        <path d="M48.1318,6.3721 C27.9098,9.5861 13.6678,25.5381 6.2618,43.8201 C-3.5312,67.9931 -0.0532,93.8281 4.6718,118.7541 C7.6458,134.4421 11.0738,150.0941 12.0668,166.0701 C13.0488,181.9091 11.9468,197.7631 11.6348,213.6021 C11.1188,239.7551 12.9018,268.7991 29.5818,290.3281 C43.5298,308.3291 66.6658,318.5671 88.8358,310.3901 C110.8278,302.2781 129.9348,283.1921 141.2848,263.0491 C152.9498,242.3471 157.0228,217.9181 151.5678,194.6851 C148.8818,183.2471 143.9138,172.3561 136.7508,163.0231 C128.2478,151.9441 116.9498,143.3081 108.8788,131.8731 C90.9588,106.4841 97.8358,74.4051 91.0398,45.8191 C86.1338,25.1781 73.2608,2.7231 50.1218,0.2921 C49.0388,0.1781 49.0468,1.8731 50.1218,1.9871 C72.7268,4.3611 84.9998,26.9981 89.5848,47.0201 C94.7248,69.4711 91.5058,93.1581 98.7468,115.2611 C106.3558,138.4851 127.6528,150.6031 139.9648,170.6741 C152.8218,191.6331 155.5168,218.1141 148.5888,241.5591 C141.8558,264.3491 126.7038,284.2091 107.5368,298.0541 C97.1178,305.5801 85.0358,311.9711 71.8538,311.7421 C59.1568,311.5211 47.1328,305.5211 37.9478,296.9911 C18.7228,279.1321 13.8128,251.7011 13.2968,226.6011 C12.7318,199.0541 15.7098,171.9571 11.2148,144.5651 C6.5098,115.8961 -3.0192,85.9791 3.8788,56.8911 C9.2358,34.3051 24.1898,11.8831 48.5828,8.0061 C49.6568,7.8351 49.2008,6.2021 48.1318,6.3721" id="Fill-13" fill="#00FFFF" mask="url(#mask-2)"></path>
                    </g>
                    <path d="M44.33,202.1695 C54.267,276.8985 69.914,350.7175 80.534,425.3415 C83.674,447.4005 86.341,469.5235 88.311,491.7175 C88.407,492.7955 90.102,492.8055 90.006,491.7175 C83.327,416.5075 68.409,342.4175 56.017,268.0245 C52.367,246.1225 48.952,224.1805 46.025,202.1695 C45.884,201.1045 44.186,201.0895 44.33,202.1695" id="Fill-16" fill="#00FFFF"></path>
                    <path d="M20.6259,270.3174 C32.4139,281.5704 45.2699,291.5154 59.1229,300.0984 C60.0529,300.6734 60.9049,299.2084 59.9789,298.6344 C46.2479,290.1284 33.5079,280.2724 21.8239,269.1194 C21.0349,268.3664 19.8349,269.5624 20.6259,270.3174" id="Fill-18" fill="#00FFFF"></path>
                    <path d="M61.4892,299.106 C69.4032,278.528 74.7132,257.169 77.4062,235.289 C77.5392,234.209 75.8432,234.219 75.7122,235.289 C73.0382,257.014 67.7122,278.227 59.8542,298.655 C59.4632,299.674 61.1002,300.115 61.4892,299.106" id="Fill-20" fill="#00FFFF"></path>
                    <path d="M26.9091,362.606 C43.2201,374.854 60.0361,386.386 77.3361,397.19 C78.2631,397.77 79.1151,396.304 78.1911,395.728 C60.8901,384.923 44.0751,373.39 27.7641,361.143 C26.8921,360.488 26.0471,361.958 26.9091,362.606" id="Fill-22" fill="#00FFFF"></path>
                    <path d="M77.5517,396.8111 C90.2027,373.3711 100.2277,348.6801 107.4907,323.0521 C107.7887,322.0011 106.1547,321.5521 105.8577,322.6021 C98.6337,348.0891 88.6707,372.6431 76.0877,395.9561 C75.5707,396.9151 77.0327,397.7721 77.5517,396.8111" id="Fill-24" fill="#00FFFF"></path>
                    <path d="M93.371,364.6748 C105.98,356.5978 117.895,347.5848 129.1,337.6518 C129.919,336.9258 128.717,335.7318 127.902,336.4528 C116.807,346.2898 105.002,355.2138 92.516,363.2118 C91.6,363.7978 92.449,365.2658 93.371,364.6748" id="Fill-26" fill="#00FFFF"></path>
                    <path d="M48.5741,379.1499 C39.3171,385.7579 29.7251,391.8209 19.7841,397.3479 C18.8311,397.8779 19.6841,399.3419 20.6391,398.8119 C30.5801,393.2849 40.1731,387.2219 49.4291,380.6129 C50.3101,379.9849 49.4651,378.5139 48.5741,379.1499" id="Fill-28" fill="#00FFFF"></path>
                    <path d="M35.9687,449.4961 C52.1137,455.1621 68.8427,458.4131 85.9287,459.2341 C87.0197,459.2871 87.0167,457.5921 85.9287,457.5391 C68.9827,456.7251 52.4237,453.4781 36.4187,447.8621 C35.3877,447.5001 34.9447,449.1371 35.9687,449.4961" id="Fill-30" fill="#00FFFF"></path>
                    <path d="M86.2411,458.646 C106.0931,433.813 125.0531,408.289 143.0861,382.105 C143.7061,381.205 142.2381,380.357 141.6231,381.25 C123.6711,407.314 104.8041,432.727 85.0431,457.447 C84.3681,458.291 85.5591,459.498 86.2411,458.646" id="Fill-32" fill="#00FFFF"></path>
                    <path d="M110.328,428.9634 C122.327,430.7314 134.343,431.0434 146.415,429.8484 C147.49,429.7414 147.501,428.0464 146.415,428.1534 C134.501,429.3324 122.625,429.0744 110.778,427.3294 C109.711,427.1714 109.251,428.8044 110.328,428.9634" id="Fill-34" fill="#00FFFF"></path>
                    <path d="M30.3251,277.3052 C23.2211,283.5562 15.6431,289.1462 7.5801,294.0962 C6.6521,294.6652 7.5021,296.1322 8.4351,295.5592 C16.6221,290.5342 24.3131,284.8482 31.5231,278.5032 C32.3441,277.7822 31.1411,276.5872 30.3251,277.3052" id="Fill-36" fill="#00FFFF"></path>
                    <path d="M469.4267,279.3477 L359.7417,287.8107 C359.2767,287.8467 358.8887,288.2307 358.8747,288.6687 L357.6337,330.0117 C357.6197,330.4507 357.9877,330.7757 358.4527,330.7407 L380.9147,329.0067 C381.2787,328.9787 381.5937,329.1727 381.6987,329.4877 L384.6347,338.2887 C384.8667,338.9867 385.9437,338.9107 386.2307,338.1767 L389.8797,328.8457 C390.0077,328.5177 390.3327,328.2807 390.6917,328.2527 L468.1377,322.2767 C468.6037,322.2417 468.9917,321.8567 469.0047,321.4187 L470.2457,280.0757 C470.2597,279.6377 469.8927,279.3117 469.4267,279.3477" id="Fill-38" fill="#F9D671"></path>
                    <path d="M444.2958,294.23 L378.0748,299.339 C377.6588,299.372 377.3318,299.081 377.3438,298.69 C377.3558,298.299 377.7018,297.957 378.1168,297.924 L444.3378,292.815 C444.7538,292.783 445.0808,293.073 445.0688,293.464 C445.0578,293.855 444.7108,294.198 444.2958,294.23" id="Fill-40" fill="#FFFFFF"></path>
                    <path d="M444.0263,303.1929 L377.8053,308.3019 C377.3893,308.3349 377.0623,308.0439 377.0743,307.6529 C377.0863,307.2619 377.4323,306.9199 377.8483,306.8869 L444.0693,301.7779 C444.4843,301.7459 444.8113,302.0359 444.7993,302.4269 C444.7883,302.8179 444.4423,303.1609 444.0263,303.1929" id="Fill-42" fill="#FFFFFF"></path>
                    <path d="M422.0595,313.8306 L377.5365,317.2666 C377.1215,317.2976 376.7935,317.0076 376.8055,316.6166 C376.8175,316.2256 377.1635,315.8826 377.5795,315.8506 L422.1025,312.4146 C422.5175,312.3836 422.8455,312.6736 422.8335,313.0646 C422.8225,313.4556 422.4755,313.7986 422.0595,313.8306" id="Fill-44" fill="#FFFFFF"></path>
                    <g id="Group-48" transform="translate(46.000000, 555.687000)">
                        <mask id="mask-4" fill="white">
                            <use xlink:href="#path-3"></use>
                        </mask>
                        <g id="Clip-47"></g>
                        <path d="M433.7489,1.8091 C359.3539,-2.4579 280.0529,6.8401 205.2169,5.7141 C177.8769,5.3031 150.5279,3.3001 123.1719,4.1421 C95.0299,5.0091 -2.7311,6.0881 0.8589,16.6051 C3.7509,25.0761 93.4329,31.4151 133.6449,35.6051 C176.6969,40.0911 334.7109,40.4971 376.6449,34.6051 C418.7639,28.6861 448.6009,30.8101 491.6449,27.6051 C500.6219,26.9361 572.5739,21.7221 561.9579,15.2481 C546.1449,5.6051 508.6449,6.1051 433.7489,1.8091" id="Fill-46" fill="#EBF5FF" mask="url(#mask-4)"></path>
                    </g>
                    <path d="M443.4442,540.583 C389.6452,537.497 332.2982,544.221 278.1782,543.407 C258.4072,543.109 238.6302,541.662 218.8462,542.27 C198.4962,542.897 107.5522,551.694 110.1482,559.3 C112.2402,565.426 197.3402,561.993 226.4202,565.023 C257.5542,568.267 371.8242,568.561 402.1482,564.3 C432.6082,560.02 454.1842,561.556 485.3122,559.238 C491.8042,558.754 563.8252,565.981 556.1482,561.3 C544.7132,554.326 497.6062,543.689 443.4442,540.583" id="Fill-49" fill="#F5FAFF"></path>
                    <path d="M309.6591,577.0391 C309.6591,577.0391 293.5901,578.5081 291.9151,579.9441 C290.2391,581.3801 299.5731,581.8591 311.3011,582.0991 C323.0281,582.3381 329.0121,584.9711 333.7991,584.4921 C338.5851,584.0131 339.0631,580.6631 348.1581,578.7481 C357.2531,576.8331 326.9261,574.3721 309.6591,577.0391" id="Fill-51" fill="#EBF5FF"></path>
                    <path d="M415.1718,573.3272 C415.1718,573.3272 431.2418,571.8572 432.9168,570.4212 C434.5928,568.9852 425.2588,568.5072 413.5308,568.2672 C401.8038,568.0282 395.8198,565.3952 391.0328,565.8742 C386.2468,566.3532 385.7688,569.7032 376.6738,571.6182 C367.5788,573.5332 397.9058,575.9932 415.1718,573.3272" id="Fill-53" fill="#EBF5FF"></path>
                    <polygon id="Fill-55" fill="#182646" points="214.0761 575.2827 213.2331 575.1957 222.8051 482.8127 223.6481 482.9007"></polygon>
                    <polygon id="Fill-57" fill="#182646" points="436.7714 575.2827 427.1984 482.9007 428.0424 482.8127 437.6144 575.1957"></polygon>
                    <mask id="mask-6" fill="white">
                        <use xlink:href="#path-5"></use>
                    </mask>
                    <g id="Clip-60"></g>
                    <polygon id="Fill-59" fill="#3C4BB4" mask="url(#mask-6)" points="192.114 485.094 456.34 485.094 456.34 476.63 192.114 476.63"></polygon>
                    <polygon id="Fill-61" fill="#182646" mask="url(#mask-6)" points="205.4325 476.2837 168.4155 359.4887 169.2235 359.2327 206.2405 476.0277"></polygon>
                    <polygon id="Fill-62" fill="#182646" mask="url(#mask-6)" points="420.5146 476.2837 383.4976 359.4887 384.3056 359.2327 421.3226 476.0277"></polygon>
                    <polygon id="Fill-63" fill="#3C4BB4" mask="url(#mask-6)" points="425.8925 421.8824 171.9855 421.8824 175.4585 432.8444 429.3675 432.8444"></polygon>
                    <polygon id="Fill-64" fill="#3C4BB4" mask="url(#mask-6)" points="434.6767 449.5982 180.7697 449.5982 184.2427 460.5602 438.1517 460.5602"></polygon>
                    <polygon id="Fill-65" fill="#3C4BB4" mask="url(#mask-6)" points="417.1083 394.1665 163.2013 394.1665 166.6743 405.1285 420.5833 405.1285"></polygon>
                    <polygon id="Fill-66" fill="#3C4BB4" mask="url(#mask-6)" points="408.3241 366.4507 154.4171 366.4507 157.8901 377.4127 411.7981 377.4127"></polygon>
                    <path d="M328.1444,572.4107 C327.7094,572.2867 327.2494,572.1717 326.7714,572.0567 C323.0254,571.1587 320.9124,567.1747 322.2344,563.5557 L310.6004,563.5557 C310.4564,565.6557 310.3204,567.7887 310.2054,569.9927 L309.9564,573.2067 C310.5224,573.7437 311.2154,574.3267 311.8884,574.6777 C313.3844,575.4577 325.0954,576.2857 327.0074,574.6777 C327.9354,573.8977 328.1924,573.1077 328.1444,572.4107" id="Fill-67" fill="#BF4F49" mask="url(#mask-6)"></path>
                    <path d="M335.4394,574.8516 C332.6364,573.6136 328.1444,572.4106 328.1444,572.4106 C325.4854,574.5846 322.1174,575.6926 318.6844,575.5506 C315.5484,575.4206 312.5914,575.0446 311.8884,574.6776 C311.2154,574.3266 310.5224,573.7446 309.9564,573.2066 L309.6594,577.0396 C309.5494,578.4596 310.6724,579.6736 312.0984,579.6736 L330.4384,579.6736 C338.6674,579.6086 338.2414,576.0896 335.4394,574.8516" id="Fill-68" fill="#0E1B33" mask="url(#mask-6)"></path>
                    <path d="M268.1181,475.4082 C285.9641,479.7852 310.0941,477.5402 310.0941,477.5402 C310.0941,477.5402 301.5631,485.1722 303.8081,518.3932 C306.0541,551.6142 308.7471,565.5312 308.7471,565.5312 L323.3581,565.5312 L347.5791,461.0982 C348.3861,463.1672 343.2021,451.1662 343.2021,451.1662 C312.2251,468.6742 288.5451,475.7442 268.1181,475.4082" id="Fill-69" fill="#0E1B33" mask="url(#mask-6)"></path>
                    <path d="M411.5204,521.6343 C411.4964,521.6323 411.4714,521.6303 411.4484,521.6283 C407.7174,521.2953 404.7144,518.4223 404.1434,514.7203 L404.0414,514.0583 L392.6184,516.2593 C392.8744,518.3493 393.1444,520.4693 393.4484,522.6553 L393.8124,525.8593 C394.4704,526.2793 395.2604,526.7193 395.9884,526.9373 C397.6044,527.4203 409.2604,526.0163 410.8334,524.0753 C411.5974,523.1343 411.7004,522.3103 411.5204,521.6343" id="Fill-70" fill="#BF4F49" mask="url(#mask-6)"></path>
                    <path d="M419.1464,522.6504 C416.1604,521.9644 411.5204,521.6344 411.5204,521.6344 C409.3214,524.2724 406.2234,525.9984 402.8274,526.5074 C399.7224,526.9744 396.7484,527.1644 395.9884,526.9374 C395.2604,526.7194 394.4704,526.2794 393.8124,525.8584 L394.2464,529.6774 C394.4074,531.0934 395.7404,532.0734 397.1394,531.8034 L415.1484,528.3324 C423.2154,526.7114 422.1314,523.3364 419.1464,522.6504" id="Fill-71" fill="#0E1B33" mask="url(#mask-6)"></path>
                    <path d="M404.706,515.5874 L376.535,427.9334 L317.052,433.5454 L284.995,425.6184 L283.158,433.5454 L238.714,420.5594 C238.744,421.9434 236.057,467.5434 268.118,475.4084 C300.245,480.0464 312.226,468.6744 343.202,451.1664 C343.202,451.1664 346.758,459.0504 350.534,467.5534 C362.959,491.6114 393.145,522.8824 393.145,522.8824 L404.706,515.5874 Z" id="Fill-72" fill="#182646" mask="url(#mask-6)"></path>
                    <path d="M312.7001,293.3921 C325.9431,270.7771 309.9281,259.2721 298.1101,260.9571 C286.2561,262.6471 286.2691,269.7111 277.3461,270.7211 C262.7571,271.3941 252.3191,274.9861 247.1561,284.1891 C241.9941,293.3921 239.0751,288.9031 223.1381,293.8411 C207.2011,298.7791 201.5901,319.2051 210.5681,327.7351 C219.5471,336.2651 213.9351,338.9581 214.8331,344.3461 C215.2371,346.7701 217.1411,348.6941 219.1131,350.0771 C221.3881,351.6721 224.0361,352.6511 226.7791,353.0871 L231.7761,353.8821 L311.6451,315.4101 C315.6521,313.4801 316.7301,308.1941 313.6951,304.9431 C313.6631,304.9091 313.6311,304.8741 313.5981,304.8401 C309.5571,300.5751 310.9071,296.4551 312.7001,293.3921" id="Fill-73" fill="#182646" mask="url(#mask-6)"></path>
                    <path d="M337.2646,321.9317 C335.1076,317.2357 331.1226,313.6267 326.2366,311.9437 L314.2896,307.8277 C311.8966,311.0497 306.7596,314.4667 295.7276,314.4667 C282.7436,314.4667 275.7546,309.6477 272.3236,306.0047 L244.2556,315.9807 C238.5646,318.0037 234.1856,322.6157 232.4616,328.4037 C229.0516,339.8507 223.6496,361.7487 220.5196,393.6697 C219.3346,405.7407 226.8546,417.0107 238.4836,420.4587 C238.5606,420.4807 238.6376,420.5037 238.7136,420.5267 L238.7136,420.5597 L283.1586,433.5457 L284.9946,425.6187 L287.1416,416.0647 L311.8896,420.9747 L323.1716,360.0727 C323.6626,357.4207 325.9176,355.4577 328.6116,355.3367 L352.1246,354.2807 L337.2646,321.9317 Z" id="Fill-74" fill="#F9D671" mask="url(#mask-6)"></path>
                    <path d="M338.6718,343.5645 C336.3988,342.6765 334.2478,341.2975 332.3168,339.3845 C329.6708,336.7635 327.4448,333.6505 325.4228,330.5315 C323.9898,328.3225 322.5218,325.3375 324.3888,322.9425 C325.9928,320.8825 328.8138,320.5245 331.1468,321.3715 C337.6498,323.7305 340.1708,332.2865 339.6508,338.5335 C339.5108,340.2375 339.1668,341.9225 338.6718,343.5645 Z M315.0248,360.5795 C314.1998,360.5535 313.3758,360.4925 312.5558,360.3925 C305.5738,359.5415 298.9228,356.1845 293.9628,351.2165 C288.8228,346.0685 283.3218,336.2105 289.1598,329.5875 C293.6128,324.5345 302.2428,325.1855 307.1658,329.1415 C313.1778,333.9715 315.2188,342.2195 315.7168,349.5695 C315.9548,353.0805 315.7468,356.8795 315.0248,360.5795 Z M258.7228,354.9755 C255.4618,349.2885 252.5988,342.4845 254.1638,335.8065 C254.9518,332.4435 257.1898,329.5955 260.7038,328.8775 C264.8688,328.0265 268.7428,330.7635 271.3138,333.7755 C275.8088,339.0445 278.3178,347.7075 275.5388,354.3355 C273.0078,360.3735 267.2508,361.3175 261.8588,359.8765 C260.7048,358.2445 259.6538,356.5995 258.7228,354.9755 Z M347.6848,344.6155 C344.8708,344.9835 342.0718,344.7275 339.4238,343.8295 C339.6888,342.9575 339.9088,342.0735 340.0768,341.1825 C341.3238,334.5865 339.7778,326.9955 334.4848,322.4755 C332.0908,320.4315 328.8248,319.3525 325.8428,320.7975 C322.7168,322.3125 322.0908,325.5195 323.4028,328.5455 C324.9938,332.2145 327.9728,335.8325 330.6608,338.7825 C332.8418,341.1755 335.4068,343.2285 338.3798,344.4495 C337.0338,348.3845 334.7378,352.0055 331.6738,354.8015 C331.5138,354.9475 331.3468,355.0815 331.1828,355.2215 C328.8648,357.2065 326.1878,358.6195 323.3308,359.4945 C320.9428,360.2265 318.4348,360.5835 315.9128,360.5875 C316.3618,358.0955 316.5788,355.5665 316.6028,353.0935 C316.6768,345.1705 315.0708,336.1235 309.4268,330.1745 C304.9768,325.4835 297.3818,323.5905 291.5078,326.7635 C284.3368,330.6375 285.2148,339.5555 288.7148,345.7015 C292.5638,352.4585 299.3588,357.5225 306.7008,359.8955 C309.3208,360.7425 312.0908,361.2415 314.8688,361.3485 C312.7358,371.2265 306.8278,380.1785 295.6148,380.6455 C282.5618,381.1885 270.4768,371.5475 262.6828,361.0175 C266.3028,361.8385 270.0188,361.4845 273.0898,358.9775 C278.7128,354.3865 278.0748,345.6185 275.6588,339.5325 C273.2128,333.3675 266.4578,325.5995 259.0198,328.5765 C252.8258,331.0555 252.3348,338.7905 253.5038,344.4245 C254.6078,349.7365 257.2678,354.8735 260.5218,359.4685 C258.7838,358.8725 257.1168,358.0475 255.6488,357.0835 C254.3388,356.2225 253.1348,355.2385 252.0118,354.1715 C248.4318,350.7685 245.7278,346.4525 243.5038,342.0685 C240.4298,336.0065 238.1428,329.4605 236.8418,322.7855 C236.7348,322.2365 236.6448,321.6865 236.5538,321.1355 C236.3178,321.3965 236.0898,321.6635 235.8688,321.9375 C236.7508,327.0695 238.3448,332.1135 240.2868,336.8745 C242.9508,343.4065 246.4978,350.1925 251.7948,355.0255 C252.0898,355.2945 252.3678,355.5835 252.6748,355.8395 C255.0688,357.8465 258.1588,359.6905 261.3978,360.6735 C262.8278,362.5935 264.3488,364.4115 265.8928,366.0915 C272.0988,372.8485 280.1588,378.8695 289.2748,380.8385 C297.0678,382.5225 305.0348,380.4245 310.1248,374.0995 C313.0678,370.4435 314.8398,365.9905 315.7698,361.3675 C318.2538,361.3855 320.7328,361.0785 323.1088,360.4075 C325.1938,359.8185 327.2028,358.9595 329.0618,357.7805 C330.2628,357.0185 331.3828,356.1365 332.4218,355.1665 C335.4678,352.3225 337.7798,348.6785 339.1328,344.7325 C339.7678,344.9575 340.4128,345.1565 341.0828,345.2995 C343.4458,345.8025 345.7848,345.8005 348.0598,345.4305 L347.6848,344.6155 Z" id="Fill-75" fill="#FFE8B0" mask="url(#mask-6)"></path>
                    <path d="M271.997,410.1202 C270.746,411.1992 268.898,410.8922 267.71,409.9622 C266.07,408.6782 265.787,406.5212 266.768,404.7052 C268.242,401.9762 270.855,401.0742 273.681,401.0702 C273.733,401.8152 273.764,402.5622 273.745,403.3092 C273.696,405.2452 273.615,408.7242 271.997,410.1202 M293.556,408.9772 C289.991,405.8572 285.85,403.3852 281.372,401.8232 C279.269,401.0892 276.82,400.3982 274.424,400.2862 C274.244,398.5072 273.863,396.7442 273.309,395.0362 C273.008,394.9812 272.706,394.9262 272.402,394.8712 C273.002,396.6212 273.43,398.4302 273.622,400.2692 C271.587,400.2912 269.623,400.7822 267.979,402.0842 C265.337,404.1772 264.198,408.3702 267.253,410.6372 C270.485,413.0362 273.356,410.7332 274.074,407.3402 C274.508,405.2932 274.629,403.1902 274.489,401.0992 C277.071,401.2422 279.755,402.0412 281.858,402.8282 C286.169,404.4382 290.153,406.9292 293.555,410.0222 C296.364,412.5762 298.77,415.5292 300.704,418.7562 L301.732,418.9602 C299.592,415.2282 296.829,411.8432 293.556,408.9772" id="Fill-76" fill="#FFE8B0" mask="url(#mask-6)"></path>
                    <path d="M251.6532,391.0889 C251.3662,391.0369 251.0872,390.9859 250.8162,390.9369 C251.4662,393.8689 251.9492,396.8369 252.2352,399.8249 C252.6202,403.8449 253.2642,408.8249 251.7792,412.6769 C249.6012,418.3249 242.6472,415.3099 239.2862,412.4599 C233.6862,407.7129 231.1222,399.3469 233.5072,392.3449 C235.5542,386.3369 240.9462,382.1819 246.9522,380.5439 C246.9932,380.2659 247.0342,379.9889 247.0772,379.7019 C244.9862,380.2289 242.9542,381.0419 241.0722,382.1689 C233.5782,386.6549 230.1762,395.2419 232.7112,403.6239 C233.8712,407.4589 236.1402,411.0059 239.3112,413.4819 C242.0772,415.6439 247.2382,418.2539 250.5372,415.7939 C253.9332,413.2599 253.4362,407.6169 253.2942,403.9389 C253.1272,399.6209 252.5692,395.3149 251.6532,391.0889" id="Fill-77" fill="#FFE8B0" mask="url(#mask-6)"></path>
                    <path d="M247.163,379.1426 C247.236,378.6606 247.311,378.1676 247.391,377.6646 C243.931,369.4086 239.07,361.7386 232.977,355.1736 C231.499,353.5806 229.472,351.5506 227.151,349.6226 C227.092,349.9066 227.031,350.1976 226.972,350.4846 C228.166,351.4896 229.237,352.4856 230.127,353.3596 C236.28,359.4156 241.327,366.5656 245.071,374.3406 C245.829,375.9136 246.516,377.5196 247.163,379.1426" id="Fill-78" fill="#FFE8B0" mask="url(#mask-6)"></path>
                    <polygon id="Fill-79" fill="#070707" mask="url(#mask-6)" points="328.5282 355.4458 322.4952 331.4698 337.0872 356.0538"></polygon>
                    <path d="M306.9833,288.732 L306.5833,288.732 C305.9033,288.732 305.3523,288.181 305.3523,287.502 L305.3523,287.101 C305.3523,286.421 305.9033,285.87 306.5833,285.87 L306.9833,285.87 C307.6633,285.87 308.2133,286.421 308.2133,287.101 L308.2133,287.502 C308.2133,288.181 307.6633,288.732 306.9833,288.732" id="Fill-80" fill="#F9D671" mask="url(#mask-6)"></path>
                    <polygon id="Fill-81" fill="#FFFFFF" mask="url(#mask-6)" points="328.2919 356.1577 322.0849 331.5737 322.9049 331.3657 329.1129 355.9497"></polygon>
                    <path d="M280.871,396.8457 L245.205,390.3447 L245.251,389.9497 C245.28,389.6987 248.23,364.5867 253.124,348.5747 L253.934,348.8217 C249.398,363.6617 246.536,386.3877 246.14,389.6537 L281.023,396.0117 L280.871,396.8457 Z" id="Fill-82" fill="#000000" mask="url(#mask-6)"></path>
                    <path d="M295.7274,314.4663 C306.7594,314.4663 311.8964,311.0493 314.2894,307.8283 L306.3924,305.1073 C302.8484,303.8863 300.6264,300.3703 301.0454,296.6463 L301.3394,294.0403 C303.8014,294.2923 306.0384,292.5913 306.4514,290.1513 L309.1954,273.9503 L292.1364,271.4813 L285.6944,293.0063 C283.9584,298.8063 279.5624,303.4313 273.8584,305.4583 L272.3234,306.0043 C275.7544,309.6483 282.7444,314.4663 295.7274,314.4663" id="Fill-83" fill="#BF4F49" mask="url(#mask-6)"></path>
                    <path d="M301.0771,298.6773 C300.9821,298.0163 300.9691,297.3353 301.0461,296.6463 L301.3401,294.0403 L296.9061,293.4233 L301.0771,298.6773 Z" id="Fill-84" fill="#BF4F49" mask="url(#mask-6)"></path>
                    <polygon id="Fill-85" fill="#070707" mask="url(#mask-6)" points="300.7421 286.6177 300.7241 285.7697 302.6851 285.7297 302.7861 280.7037 303.6341 280.7207 303.5171 286.5587"></polygon>
                    <path d="M300.0722,281.5694 C300.0912,281.7954 299.9232,281.9924 299.6972,282.0104 C299.4712,282.0284 299.2742,281.8604 299.2562,281.6344 C299.2382,281.4094 299.4062,281.2124 299.6322,281.1944 C299.8572,281.1754 300.0542,281.3444 300.0722,281.5694" id="Fill-86" fill="#070707" mask="url(#mask-6)"></path>
                    <path d="M300.0732,281.5694 L299.6502,281.6044 C299.6512,281.6124 299.6582,281.6164 299.6652,281.6164 C299.6652,281.6164 299.6662,281.6164 299.6662,281.6164 L300.0732,281.5694 Z M299.6612,282.4354 C299.4652,282.4354 299.2752,282.3654 299.1242,282.2364 C298.9542,282.0914 298.8512,281.8894 298.8342,281.6684 C298.8162,281.4484 298.8852,281.2334 299.0292,281.0634 C299.1742,280.8934 299.3762,280.7894 299.5972,280.7714 C300.0762,280.7374 300.4572,281.0764 300.4952,281.5334 L300.4952,281.5364 C300.5122,281.7574 300.4422,281.9734 300.2992,282.1424 C300.1542,282.3124 299.9512,282.4154 299.7292,282.4324 C299.7072,282.4344 299.6842,282.4354 299.6612,282.4354 Z" id="Fill-87" fill="#070707" mask="url(#mask-6)"></path>
                    <path d="M306.0517,281.8653 C306.0697,282.0903 305.9017,282.2873 305.6757,282.3063 C305.4507,282.3243 305.2527,282.1563 305.2357,281.9303 C305.2167,281.7053 305.3857,281.5083 305.6107,281.4903 C305.8357,281.4713 306.0327,281.6393 306.0517,281.8653" id="Fill-88" fill="#070707" mask="url(#mask-6)"></path>
                    <path d="M306.0517,281.8648 L305.6287,281.9008 C305.6307,281.9078 305.6367,281.9128 305.6437,281.9128 C305.6437,281.9128 305.6447,281.9128 305.6447,281.9118 L306.0517,281.8648 Z M305.6407,282.7308 C305.4447,282.7308 305.2537,282.6618 305.1037,282.5318 C304.9337,282.3868 304.8297,282.1858 304.8127,281.9638 C304.7777,281.5068 305.1187,281.1038 305.5757,281.0678 C306.0557,281.0308 306.4357,281.3718 306.4747,281.8298 L306.4747,281.8318 C306.4917,282.0538 306.4217,282.2688 306.2787,282.4378 C306.1337,282.6078 305.9307,282.7108 305.7087,282.7288 C305.6857,282.7298 305.6627,282.7308 305.6407,282.7308 Z" id="Fill-89" fill="#070707" mask="url(#mask-6)"></path>
                    <path d="M311.6278,268.9029 C311.6278,268.9029 310.5858,279.6619 291.0798,282.0549 L283.8998,276.5509 L290.9598,267.3369" id="Fill-90" fill="#182646" mask="url(#mask-6)"></path>
                    <path d="M291.3153,282.8028 C291.3153,282.8028 290.8963,279.3648 288.1723,279.2398 C285.7323,279.1268 285.0583,283.7848 289.7723,284.7948" id="Fill-91" fill="#BF4F49" mask="url(#mask-6)"></path>
                    <path d="M288.5624,286.647 L288.1624,286.647 C287.4824,286.647 286.9314,286.096 286.9314,285.416 L286.9314,285.016 C286.9314,284.336 287.4824,283.785 288.1624,283.785 L288.5624,283.785 C289.2424,283.785 289.7934,284.336 289.7934,285.016 L289.7934,285.416 C289.7934,286.096 289.2424,286.647 288.5624,286.647" id="Fill-92" fill="#F9D671" mask="url(#mask-6)"></path>
                    <path d="M289.6444,404.2349 L308.4134,402.1929 L314.7994,412.1859 L312.9744,422.3519 L308.0224,418.9629 L308.5434,420.3969 C308.5434,420.3969 305.7414,420.2009 303.5904,417.5289 C301.3204,414.7079 300.9844,413.7499 300.9844,413.7499 C300.9844,413.7499 297.0214,420.0749 287.1414,416.0649" id="Fill-93" fill="#BF4F49" mask="url(#mask-6)"></path>
                    <polygon id="Fill-94" fill="#A52E2B" mask="url(#mask-6)" points="307.664 419.189 303.579 412.716 304.297 412.263 308.381 418.736"></polygon>
                    <polygon id="Fill-95" fill="#A52E2B" mask="url(#mask-6)" points="309.9667 415.9742 305.8817 409.5002 306.5997 409.0482 310.6837 415.5222"></polygon>
                    <polygon id="Fill-96" fill="#A52E2B" mask="url(#mask-6)" points="311.8778 412.8028 307.7938 406.3298 308.5118 405.8768 312.5948 412.3508"></polygon>
                    <path d="M297.5819,277.3423 C295.4449,277.3423 293.7069,279.0813 293.7069,281.2173 C293.7069,283.3543 295.4449,285.0923 297.5819,285.0923 C299.7189,285.0923 301.4569,283.3543 301.4569,281.2173 C301.4569,279.0813 299.7189,277.3423 297.5819,277.3423 M297.5819,285.8113 C295.0489,285.8113 292.9879,283.7503 292.9879,281.2173 C292.9879,278.6853 295.0489,276.6243 297.5819,276.6243 C300.1139,276.6243 302.1749,278.6853 302.1749,281.2173 C302.1749,283.7503 300.1139,285.8113 297.5819,285.8113" id="Fill-97" fill="#070707" mask="url(#mask-6)"></path>
                    <path d="M308.5116,278.0606 C306.3746,278.0606 304.6366,279.7986 304.6366,281.9356 C304.6366,284.0726 306.3746,285.8106 308.5116,285.8106 C310.6486,285.8106 312.3866,284.0726 312.3866,281.9356 C312.3866,279.7986 310.6486,278.0606 308.5116,278.0606 M308.5116,286.5286 C305.9786,286.5286 303.9186,284.4686 303.9186,281.9356 C303.9186,279.4026 305.9786,277.3426 308.5116,277.3426 C311.0436,277.3426 313.1046,279.4026 313.1046,281.9356 C313.1046,284.4686 311.0436,286.5286 308.5116,286.5286" id="Fill-98" fill="#070707" mask="url(#mask-6)"></path>
                    <polygon id="Fill-99" fill="#070707" mask="url(#mask-6)" points="304.2685 281.4815 301.9555 281.4015 301.9835 280.5545 304.2975 280.6345"></polygon>
                    <path d="M302.2187,290.1362 C300.1727,290.1362 298.5727,289.1702 298.4877,289.1172 L298.9307,288.3952 C298.9527,288.4092 301.2827,289.8122 303.7317,289.0692 L303.9767,289.8802 C303.3727,290.0632 302.7797,290.1362 302.2187,290.1362" id="Fill-100" fill="#070707" mask="url(#mask-6)"></path>
                    <path d="M323.1825,360.0122 L311.8895,420.9752 L287.1415,416.0652 L284.9945,425.6182 L317.0515,433.5452 L376.5355,427.9332 L395.7725,426.0002 C398.2795,425.7492 400.3265,423.8882 400.8165,421.4172 L413.2745,358.5572 C413.9965,354.9122 411.1085,351.5552 407.3965,351.7252 L328.5495,355.3362 C325.8915,355.4572 323.6665,357.3952 323.1825,360.0122" id="Fill-101" fill="#C2EFFF" mask="url(#mask-6)"></path>
                    <polygon id="Fill-102" fill="#73E1FF" mask="url(#mask-6)" points="314.5409 427.8848 287.7349 422.3808 287.9629 421.2738 314.7689 426.7788"></polygon>
                    <polygon id="Fill-103" fill="#FFFFFF" mask="url(#mask-6)" points="397.9843 420.3164 397.1523 420.1524 399.0383 410.6404 399.8703 410.8054"></polygon>
                    <path d="M402.9237,395.3941 L402.0917,395.2301 L408.6877,361.9511 C409.0067,360.3421 408.5747,358.7061 407.5057,357.4621 C406.4357,356.2201 404.8817,355.5481 403.2447,355.6241 L331.7707,358.8971 L331.7317,358.0511 L403.2047,354.7771 C405.1367,354.6971 406.9077,355.4681 408.1487,356.9091 C409.3897,358.3511 409.8897,360.2491 409.5197,362.1151 L402.9237,395.3941 Z" id="Fill-104" fill="#FFFFFF" mask="url(#mask-6)"></path>
                    <polygon id="Fill-105" fill="#000000" mask="url(#mask-6)" points="286.5849 421.7408 285.7549 421.5728 290.2729 399.3278 291.1029 399.4968"></polygon>
                    <path d="M539.5986,527.5303 L496.8366,527.7693 L496.8616,527.8423 L496.0016,527.8513 C496.0016,527.8513 495.2836,543.0493 497.0786,552.2633 C498.8736,561.4773 506.7716,564.5893 506.7716,564.5893 L526.6366,564.5893 L529.4936,563.7973 C539.2626,561.9453 538.5766,555.2983 539.4386,550.2673 C540.3966,544.6823 539.5986,527.5303 539.5986,527.5303" id="Fill-106" fill="#FFFFFF" mask="url(#mask-6)"></path>
                    <path d="M511.4384,527.6919 C511.4384,527.6919 510.9894,530.1289 511.4384,533.2759 C511.5984,534.3929 512.0774,537.9029 509.6834,546.1999 C507.2904,554.4969 522.1284,565.3469 531.3824,563.2729 L526.6364,564.5889 L506.7714,564.5889 C506.7714,564.5889 498.8744,561.4779 497.0794,552.2629 C495.2834,543.0489 496.0014,527.8509 496.0014,527.8509 L511.4384,527.6919 Z" id="Fill-107" fill="#C9D9FB" mask="url(#mask-6)"></path>
                    <path d="M497.0663,495.7525 C497.0663,495.7525 485.5783,496.7095 478.8773,487.1365 C472.1753,477.5635 469.5433,481.1525 466.4313,475.8875 C463.3203,470.6225 462.1243,458.6555 469.7823,452.6715 C477.4413,446.6885 489.1683,452.4325 491.3223,461.0485 C493.4763,469.6655 495.1513,473.0155 497.7843,478.2805 C500.4173,483.5465 502.3323,490.2475 497.0663,495.7525" id="Fill-108" fill="#6392D6" mask="url(#mask-6)"></path>
                    <path d="M536.5566,508.1978 C536.5566,508.1978 533.6846,501.0178 540.1466,492.8808 C542.3006,489.7688 540.3856,484.2638 543.4966,478.2808 C546.6086,472.2978 556.1816,465.3568 566.7126,468.4688 C577.2436,471.5798 578.2016,490.7258 564.0796,497.6668 C549.9586,504.6078 553.3526,507.1088 549.4806,509.6338 C543.9756,513.2238 537.0356,512.7448 534.4026,511.5488 L536.5566,508.1978 Z" id="Fill-109" fill="#6392D6" mask="url(#mask-6)"></path>
                    <path d="M495.5956,527.6558 C495.3276,535.2128 495.0336,543.1608 496.3336,550.6418 C497.3246,556.3458 500.0316,561.8778 505.5086,564.3988 C505.8366,564.5508 506.1236,564.0638 505.7936,563.9108 C499.3996,560.9688 497.1546,554.1108 496.4966,547.5798 C495.8346,540.9898 495.9266,534.2658 496.1606,527.6558 C496.1736,527.2918 495.6096,527.2928 495.5956,527.6558" id="Fill-110" fill="#182646" mask="url(#mask-6)"></path>
                    <path d="M495.9618,527.938 L537.6478,527.938 C538.0118,527.938 538.0118,527.373 537.6478,527.373 L495.9618,527.373 C495.5988,527.373 495.5978,527.938 495.9618,527.938" id="Fill-111" fill="#182646" mask="url(#mask-6)"></path>
                    <path d="M539.3632,529.2481 C539.3582,535.8951 539.4282,542.5471 539.3462,549.1941 C539.2702,555.3921 536.8392,562.7381 529.6692,563.5401 C529.3112,563.5801 529.3072,564.1451 529.6692,564.1051 C534.8852,563.5211 538.4702,559.0721 539.5152,554.1251 C540.3002,550.4091 539.9162,546.3761 539.9192,542.6031 C539.9222,538.1521 539.9252,533.7001 539.9282,529.2481 C539.9282,528.8851 539.3642,528.8841 539.3632,529.2481" id="Fill-112" fill="#182646" mask="url(#mask-6)"></path>
                    <path d="M493.4228,564.9912 L541.9918,564.9912 C542.3558,564.9912 542.3558,564.4262 541.9918,564.4262 L493.4228,564.4262 C493.0598,564.4262 493.0598,564.9912 493.4228,564.9912" id="Fill-113" fill="#182646" mask="url(#mask-6)"></path>
                    <path d="M499.7978,533.5161 L534.8598,533.5161 C535.2228,533.5161 535.2228,532.9511 534.8598,532.9511 L499.7978,532.9511 C499.4348,532.9511 499.4338,533.5161 499.7978,533.5161" id="Fill-114" fill="#182646" mask="url(#mask-6)"></path>
                    <path d="M492.2353,504.3784 C496.9253,512.2904 501.7563,520.1194 506.8863,527.7544 C507.0893,528.0544 507.5783,527.7724 507.3753,527.4694 C502.2433,519.8344 497.4143,512.0044 492.7233,504.0934 C492.5383,503.7804 492.0493,504.0644 492.2353,504.3784" id="Fill-115" fill="#182646" mask="url(#mask-6)"></path>
                    <path d="M492.2401,504.1641 C481.3471,504.6251 470.4541,505.0871 459.5611,505.5491 C459.1991,505.5641 459.1971,506.1291 459.5611,506.1141 C470.4541,505.6521 481.3471,505.1901 492.2401,504.7291 C492.6021,504.7131 492.6041,504.1481 492.2401,504.1641" id="Fill-116" fill="#182646" mask="url(#mask-6)"></path>
                    <path d="M459.9276,505.438 C462.7016,512.016 468.8626,517.216 476.3446,516.607 C483.6246,516.014 488.5256,509.937 492.6556,504.565 C492.8756,504.277 492.3856,503.995 492.1666,504.28 C488.5206,509.024 484.3076,514.405 478.1436,515.771 C470.3486,517.497 463.3846,512.191 460.4726,505.288 C460.3336,504.958 459.7866,505.103 459.9276,505.438" id="Fill-117" fill="#182646" mask="url(#mask-6)"></path>
                    <path d="M476.3954,457.3023 C488.1384,481.3663 501.0674,504.8243 515.0244,527.6753 C515.2134,527.9843 515.7024,527.7013 515.5114,527.3893 C501.5544,504.5403 488.6254,481.0813 476.8834,457.0173 C476.7234,456.6903 476.2364,456.9763 476.3954,457.3023" id="Fill-118" fill="#182646" mask="url(#mask-6)"></path>
                    <path d="M496.6103,494.6353 C491.0063,495.0953 485.5263,494.5423 481.5663,490.1203 C478.8543,487.0923 477.0553,483.5183 473.7063,481.0793 C471.6083,479.5523 469.1623,478.4193 467.3933,476.4713 C465.2663,474.1263 464.5973,471.0363 464.3843,467.9683 C464.0103,462.5753 464.8523,456.4253 469.5313,453.0313 C473.8683,449.8843 479.7703,449.9233 484.2643,452.7223 C488.8973,455.6073 491.0193,460.2853 492.2143,465.4083 C493.3443,470.2613 495.3313,474.2953 497.4633,478.7643 C499.8973,483.8693 501.7233,490.3793 497.5273,495.1273 C497.2873,495.3983 497.6853,495.8003 497.9263,495.5263 C504.1323,488.5053 498.1883,479.5873 495.0943,472.6983 C492.9703,467.9673 492.8263,462.5313 490.1663,458.0383 C488.3713,455.0063 485.6353,452.4643 482.3653,451.1103 C475.1363,448.1163 466.8423,451.7813 464.5893,459.3203 C463.3833,463.3543 463.3433,468.2363 464.5063,472.2933 C465.6663,476.3423 468.5913,478.3733 471.9543,480.5793 C474.6953,482.3783 476.6123,484.4583 478.5333,487.0943 C479.8723,488.9313 481.1933,490.8263 482.9673,492.2783 C486.7913,495.4063 491.9113,495.5863 496.6103,495.2003 C496.9703,495.1703 496.9733,494.6053 496.6103,494.6353" id="Fill-119" fill="#182646" mask="url(#mask-6)"></path>
                    <path d="M518.5107,527.6489 C519.1757,499.0819 520.4617,470.5319 522.3667,442.0209 C522.3917,441.6579 521.8267,441.6589 521.8027,442.0209 C519.8967,470.5319 518.6107,499.0819 517.9457,527.6489 C517.9377,528.0129 518.5017,528.0129 518.5107,527.6489" id="Fill-120" fill="#182646" mask="url(#mask-6)"></path>
                    <path d="M521.8701,429.7354 C515.6271,428.4994 509.3581,431.3514 505.5481,436.3514 C501.4261,441.7594 500.6401,449.0534 501.7531,455.5894 C502.5361,460.1914 504.4921,464.5424 504.6611,469.2534 C504.8101,473.4094 503.9101,477.5764 504.8741,481.6884 C506.4011,488.2044 511.4291,493.1824 516.7141,496.9234 C517.0111,497.1344 517.2931,496.6444 516.9991,496.4364 C511.7231,492.7014 506.6951,487.6834 505.3331,481.1274 C504.5531,477.3694 505.2911,473.5764 505.2321,469.7884 C505.1811,466.4764 504.2871,463.3564 503.4161,460.1854 C501.5631,453.4394 500.9561,446.1244 504.1691,439.6584 C507.3741,433.2074 514.4601,428.8424 521.7201,430.2804 C522.0751,430.3504 522.2271,429.8064 521.8701,429.7354" id="Fill-121" fill="#182646" mask="url(#mask-6)"></path>
                    <path d="M521.1845,430.5474 C527.0535,431.4564 531.6625,435.5734 534.1485,440.8624 C537.1095,447.1614 536.4695,454.4374 534.3475,460.8874 C532.3815,466.8624 528.2845,472.0894 527.1605,478.3194 C526.0635,484.4034 526.7095,492.6504 519.9155,495.5874 C519.5825,495.7304 519.8715,496.2174 520.2015,496.0744 C525.9965,493.5704 526.6665,486.9484 527.2985,481.4374 C528.2705,472.9724 533.7025,466.2964 535.7385,458.1144 C538.5385,446.8614 534.4615,432.0354 521.3345,430.0034 C520.9795,429.9474 520.8265,430.4924 521.1845,430.5474" id="Fill-122" fill="#182646" mask="url(#mask-6)"></path>
                    <path d="M520.4189,527.6035 C535.1979,510.2175 549.9769,492.8315 564.7549,475.4455 C564.9889,475.1695 564.5919,474.7685 564.3559,475.0455 C549.5769,492.4325 534.7989,509.8175 520.0199,527.2045 C519.7849,527.4795 520.1839,527.8805 520.4189,527.6035" id="Fill-123" fill="#182646" mask="url(#mask-6)"></path>
                    <path d="M536.8456,507.9077 C534.6836,502.8397 536.3476,498.6647 539.3196,494.4427 C541.4076,491.4757 541.4856,488.5077 541.8456,485.0117 C542.7386,476.3387 549.8356,469.3367 558.3606,467.8207 C562.8996,467.0127 567.7466,467.8427 570.9496,471.4007 C573.7906,474.5567 574.9216,479.1607 574.2316,483.3117 C572.7796,492.0427 565.5396,496.4437 558.6766,500.7227 C557.0426,501.7407 555.4366,502.8387 554.0456,504.1787 C552.3326,505.8277 551.0716,507.8997 549.0876,509.2697 C545.2086,511.9477 540.1876,512.0277 535.6566,511.7907 C535.2926,511.7717 535.2936,512.3367 535.6566,512.3557 C539.7836,512.5717 544.2196,512.5127 547.9866,510.5797 C549.8756,509.6097 551.2226,508.2097 552.5956,506.6187 C554.4686,504.4477 556.5206,502.7317 558.9616,501.2107 C566.1506,496.7287 573.8446,491.8957 574.8946,482.6247 C575.7696,474.9017 570.7236,467.5547 562.7386,466.9857 C554.4406,466.3947 545.8106,471.8837 542.5936,479.5047 C541.7086,481.5997 541.3746,483.7377 541.2036,485.9877 C541.0726,487.7187 541.0326,489.5187 540.4586,491.1757 C539.8836,492.8377 538.8266,494.1117 537.8256,495.5147 C535.0866,499.3557 534.4946,503.8267 536.3586,508.1927 C536.4996,508.5257 536.9876,508.2387 536.8456,507.9077" id="Fill-124" fill="#182646" mask="url(#mask-6)"></path>
                    <path d="M527.8505,527.541 C534.4545,524.073 540.7615,520.12 546.7625,515.689 C547.0515,515.476 546.7705,514.985 546.4775,515.202 C540.4765,519.632 534.1685,523.585 527.5655,527.053 C527.2445,527.223 527.5295,527.71 527.8505,527.541" id="Fill-125" fill="#182646" mask="url(#mask-6)"></path>
                    <path d="M546.0732,515.2349 C550.6262,520.7329 556.9622,525.7539 564.3642,522.5929 C566.2222,521.7989 567.4552,521.3909 569.5092,521.9059 C570.3202,522.1099 571.0962,522.4419 571.9052,522.6579 C573.2992,523.0309 574.6682,523.1839 576.0532,522.7069 C579.3282,521.5789 580.8782,518.1819 582.1432,515.2489 C582.2862,514.9189 581.8002,514.6309 581.6562,514.9639 C580.0612,518.6579 577.6682,523.2209 572.8602,522.3169 C570.4612,521.8649 568.3592,520.5069 565.8792,521.2889 C564.2152,521.8139 562.8622,522.7579 561.0822,522.9819 C558.9202,523.2539 556.8372,522.8389 554.8572,521.9609 C551.4232,520.4359 548.8302,517.6829 546.4722,514.8359 C546.2402,514.5549 545.8432,514.9569 546.0732,515.2349" id="Fill-126" fill="#182646" mask="url(#mask-6)"></path>
                    <path d="M547.2099,515.9854 L581.4749,515.9854 C581.8379,515.9854 581.8379,515.4214 581.4749,515.4214 L547.2099,515.4214 C546.8469,515.4214 546.8459,515.9854 547.2099,515.9854" id="Fill-127" fill="#182646" mask="url(#mask-6)"></path>
                    <path d="M372.6884,389.9346 C372.6884,392.8966 370.2874,395.6516 367.3254,396.0866 C364.3624,396.5226 361.9614,394.4746 361.9614,391.5126 C361.9614,388.5496 364.3624,385.7956 367.3254,385.3596 C370.2874,384.9246 372.6884,386.9726 372.6884,389.9346" id="Fill-128" fill="#FFFFFF" mask="url(#mask-6)"></path>
                    <path d="M25.2734,41.9441 C25.2734,41.9441 250.6614,63.9741 235.4094,55.5011 C220.1574,47.0281 166.7444,44.2901 157.7064,34.4981 C148.6674,24.7061 139.6284,7.3821 118.5394,10.3951 C97.4494,13.4081 95.5654,-2.0329 75.9824,0.2271 C56.3984,2.4861 44.7234,17.9271 43.9704,24.7061 C43.2174,31.4851 26.1594,26.7941 25.2734,41.9441" id="Fill-129" fill="#EBF5FF" mask="url(#mask-6)"></path>
                    <path d="M327.0136,129.5484 C327.0136,129.5484 403.1906,131.3574 412.0616,128.7754 C420.9326,126.1934 406.1626,123.0944 394.7336,116.1564 C383.3046,109.2184 374.2336,103.3714 369.3756,112.6804 C364.5186,121.9904 356.1996,117.3714 348.9476,121.3914 C341.6946,125.4104 327.0136,129.5484 327.0136,129.5484" id="Fill-130" fill="#EBF5FF" mask="url(#mask-6)"></path>
                </g>
                <g id="Group-185" transform="translate(756.000000, 0.000000)">
                    <path d="M521.6,389.2658 L522.352,541.8778 L599.857,589.1038 C598.869,571.9298 585.274,445.8878 585.274,411.6288 C585.274,377.3708 580.603,229.4388 566.587,199.8518 C552.573,170.2658 522.987,179.6088 493.4,170.2658 C463.814,160.9228 432.669,123.5508 402.415,121.4528 C372.161,119.3558 347.025,142.2368 339.239,168.7088 C331.453,195.1808 287.852,224.7678 281.623,241.8958 C275.395,259.0258 267.608,344.6708 267.608,344.6708 L398.873,345.6728 L401.291,468.1128 L401.171,385.1128 L521.6,389.2658 Z" id="Fill-1" fill="#E9F9FF"></path>
                    <path d="M403.0199,458.6086 L403.0199,445.1866 L403.0199,420.8296 L403.0199,328.8446 L403.0199,146.7766 L403.0199,121.4536 C403.0199,121.0636 402.4149,121.0636 402.4149,121.4536 L402.4149,308.9126 L402.4149,398.9296 L402.4149,448.5116 L402.4149,461.1616 C402.4149,462.3176 402.0429,464.7196 402.1409,466.5096 L403.0199,465.4426 C403.0959,463.1716 403.0199,460.8806 403.0199,458.6086" id="Fill-3" fill="#DDDDDD"></path>
                    <path d="M599.8568,589.1037 C585.1768,580.0617 570.4978,571.0197 555.8178,561.9767 C544.7018,555.1287 533.5848,548.2817 522.4678,541.4347 L522.4488,542.1337 C530.0278,546.8017 537.6058,551.4697 545.1838,556.1377 C557.0028,563.4167 568.8208,570.6967 580.6388,577.9767 C584.5608,580.3927 588.4828,582.8077 592.4038,585.2237 C594.3758,586.4377 596.5258,588.2657 598.6948,589.0987 C598.9908,589.2117 599.2788,589.4577 599.5508,589.6257 C599.8838,589.8317 600.1878,589.3077 599.8568,589.1037" id="Fill-5" fill="#DDDDDD"></path>
                    <path d="M435.1508,224.1352 C435.1378,281.5362 433.5668,338.9282 430.4388,396.2442 C430.4178,396.6332 431.0228,396.6322 431.0438,396.2442 C434.1718,338.9282 435.7438,281.5362 435.7548,224.1352 C435.7548,223.7462 435.1508,223.7452 435.1508,224.1352" id="Fill-7" fill="#DDDDDD"></path>
                    <path d="M440.4691,213.353 C438.1531,274.602 435.8351,335.852 433.5191,397.101 C433.5041,397.49 434.1101,397.49 434.1241,397.101 C436.4411,335.852 438.7581,274.602 441.0741,213.353 C441.0891,212.964 440.4841,212.964 440.4691,213.353" id="Fill-9" fill="#DDDDDD"></path>
                    <path d="M433.2758,218.8938 C440.5958,217.0128 448.3068,216.4678 455.8178,215.9058 C465.8588,215.1538 475.9298,214.7838 485.9968,214.6348 C496.0548,214.4858 506.1258,214.5538 516.1758,215.0258 C523.6698,215.3768 531.4038,215.6968 538.7228,217.4678 C539.1008,217.5598 539.2618,216.9758 538.8828,216.8838 C531.8128,215.1738 524.3488,214.8258 517.1138,214.4658 C506.7528,213.9498 496.3678,213.8758 485.9968,214.0298 C475.6168,214.1838 465.2318,214.5688 454.8798,215.3718 C447.6328,215.9338 440.1808,216.4948 433.1158,218.3108 C432.7388,218.4068 432.8978,218.9908 433.2758,218.8938" id="Fill-11" fill="#DDDDDD"></path>
                    <path d="M495.3715,237.7334 C483.2725,258.1884 471.1745,278.6424 459.0755,299.0974 C458.8775,299.4334 459.3995,299.7384 459.5985,299.4024 C471.6965,278.9484 483.7955,258.4934 495.8935,238.0384 C496.0935,237.7024 495.5695,237.3984 495.3715,237.7334" id="Fill-13" fill="#DDDDDD"></path>
                    <path d="M488.7513,284.7986 C479.9303,300.8056 471.1093,316.8126 462.2883,332.8196 C462.1013,333.1616 462.6223,333.4666 462.8113,333.1256 C471.6323,317.1186 480.4523,301.1106 489.2733,285.1036 C489.4613,284.7626 488.9383,284.4566 488.7513,284.7986" id="Fill-15" fill="#DDDDDD"></path>
                    <path d="M291.2357,262.3982 L392.8587,262.3982 C393.2487,262.3982 393.2497,261.7932 392.8587,261.7932 L291.2357,261.7932 C290.8467,261.7932 290.8457,262.3982 291.2357,262.3982" id="Fill-17" fill="#DDDDDD"></path>
                    <path d="M285.2386,268.3791 C320.0866,268.1011 354.9206,267.2081 389.7676,266.9301 C390.1566,266.9271 390.1576,266.3211 389.7676,266.3251 C354.9206,266.6031 320.0866,267.4961 285.2386,267.7741 C284.8496,267.7771 284.8486,268.3821 285.2386,268.3791" id="Fill-19" fill="#DDDDDD"></path>
                    <path d="M315.1371,219.5339 L315.1371,260.3639 C315.1371,260.7539 315.7411,260.7539 315.7411,260.3639 L315.7411,219.5339 C315.7411,219.1449 315.1371,219.1439 315.1371,219.5339" id="Fill-21" fill="#DDDDDD"></path>
                    <path d="M314.3207,219.7749 C319.1797,218.4119 324.0277,218.2239 328.9727,219.2169 C329.3527,219.2939 329.5157,218.7099 329.1337,218.6329 C324.0967,217.6219 319.1047,217.8039 314.1607,219.1919 C313.7857,219.2959 313.9447,219.8809 314.3207,219.7749" id="Fill-23" fill="#DDDDDD"></path>
                    <path d="M327.85,218.3599 C328.287,232.5599 328.725,246.7609 329.162,260.9619 C329.174,261.3499 329.78,261.3519 329.768,260.9619 C329.329,246.7609 328.892,232.5599 328.454,218.3599 C328.443,217.9709 327.837,217.9699 327.85,218.3599" id="Fill-25" fill="#DDDDDD"></path>
                    <path d="M317.2572,238.4763 C319.7072,234.8893 322.7412,231.8383 326.3152,229.3683 C326.6332,229.1483 326.3302,228.6233 326.0092,228.8453 C322.3512,231.3743 319.2422,234.4993 316.7352,238.1713 C316.5152,238.4933 317.0382,238.7963 317.2572,238.4763" id="Fill-27" fill="#DDDDDD"></path>
                    <path d="M316.2767,245.7153 C319.0757,240.4533 322.8707,235.9433 327.5687,232.2803 C327.8757,232.0413 327.4447,231.6153 327.1407,231.8523 C322.3987,235.5493 318.5777,240.1023 315.7547,245.4103 C315.5717,245.7533 316.0927,246.0593 316.2767,245.7153" id="Fill-29" fill="#DDDDDD"></path>
                    <path d="M327.8705,226.2881 C333.0935,226.6591 338.2335,226.3331 343.3665,225.3171 C343.7485,225.2421 343.5865,224.6581 343.2055,224.7341 C338.1175,225.7401 333.0405,226.0501 327.8705,225.6831 C327.4815,225.6551 327.4835,226.2601 327.8705,226.2881" id="Fill-31" fill="#DDDDDD"></path>
                    <path d="M341.7523,227.2278 C342.9063,238.6528 343.7813,250.0988 344.3773,261.5658 C344.3983,261.9528 345.0033,261.9558 344.9823,261.5658 C344.3863,250.0988 343.5113,238.6528 342.3573,227.2278 C342.3183,226.8438 341.7133,226.8398 341.7523,227.2278" id="Fill-33" fill="#DDDDDD"></path>
                    <path d="M334.4144,240.6157 C333.1314,243.3247 331.7284,246.8187 333.8334,249.4997 C335.3194,251.3927 338.0874,251.9137 339.6634,249.8417 C342.0164,246.7487 339.8584,236.4697 334.7884,239.9947 C334.4704,240.2147 334.7724,240.7397 335.0934,240.5167 C339.5284,237.4347 340.9234,246.4507 339.4544,249.0547 C337.8424,251.9127 334.3384,250.2557 333.5494,247.6907 C332.8454,245.4017 333.9784,242.9447 334.9364,240.9207 C335.1024,240.5707 334.5804,240.2637 334.4144,240.6157" id="Fill-35" fill="#DDDDDD"></path>
                    <path d="M340.9603,215.4158 C341.6053,221.1298 342.2493,226.8438 342.8953,232.5588 C342.9383,232.9408 343.5433,232.9458 343.4993,232.5588 C342.8553,226.8438 342.2103,221.1298 341.5653,215.4158 C341.5223,215.0328 340.9163,215.0288 340.9603,215.4158" id="Fill-37" fill="#DDDDDD"></path>
                    <path d="M342.0844,215.238 C347.6494,214.646 353.1244,214.883 358.6204,215.969 C359.0014,216.044 359.1644,215.461 358.7814,215.385 C353.2404,214.29 347.7064,214.035 342.0844,214.633 C341.7004,214.674 341.6964,215.279 342.0844,215.238" id="Fill-39" fill="#DDDDDD"></path>
                    <path d="M357.3666,215.977 C357.1386,231.19 357.5696,246.392 358.6586,261.568 C358.6856,261.954 359.2916,261.957 359.2626,261.568 C358.1756,246.392 357.7436,231.19 357.9706,215.977 C357.9766,215.587 357.3726,215.587 357.3666,215.977" id="Fill-41" fill="#DDDDDD"></path>
                    <path d="M343.4808,230.9062 C346.3088,227.1062 349.6348,223.7682 353.4258,220.9272 C353.7338,220.6962 353.4318,220.1702 353.1208,220.4042 C349.2438,223.3102 345.8508,226.7142 342.9588,230.6012 C342.7248,230.9132 343.2508,231.2152 343.4808,230.9062" id="Fill-43" fill="#DDDDDD"></path>
                    <path d="M343.35,236.1672 C346.171,231.0782 349.791,226.5992 354.171,222.7702 C354.465,222.5132 354.036,222.0872 353.744,222.3422 C349.322,226.2072 345.674,230.7262 342.828,235.8612 C342.638,236.2022 343.161,236.5082 343.35,236.1672" id="Fill-45" fill="#DDDDDD"></path>
                    <path d="M345.2709,258.8367 C349.9509,254.6337 354.6299,250.4307 359.3099,246.2287 C359.5999,245.9677 359.1699,245.5407 358.8809,245.8007 C354.2019,250.0037 349.5229,254.2057 344.8429,258.4087 C344.5519,258.6697 344.9819,259.0967 345.2709,258.8367" id="Fill-47" fill="#DDDDDD"></path>
                    <path d="M345.9008,260.0652 C350.0898,256.4632 354.5498,253.2492 359.2888,250.4092 C359.6228,250.2092 359.3178,249.6852 358.9828,249.8862 C354.2008,252.7532 349.6998,256.0032 345.4728,259.6372 C345.1768,259.8912 345.6068,260.3182 345.9008,260.0652" id="Fill-49" fill="#DDDDDD"></path>
                    <path d="M287.723,262.5864 C287.013,265.0274 287.079,267.5154 287.927,269.9124 C288.056,270.2774 288.641,270.1204 288.51,269.7524 C287.696,267.4474 287.624,265.0944 288.306,262.7474 C288.415,262.3724 287.831,262.2124 287.723,262.5864" id="Fill-51" fill="#DDDDDD"></path>
                    <path d="M391.9447,259.7788 C392.2337,262.7448 392.1217,265.6668 391.5887,268.6008 C391.5187,268.9818 392.1017,269.1448 392.1717,268.7618 C392.7147,265.7778 392.8447,262.7998 392.5497,259.7788 C392.5117,259.3948 391.9067,259.3908 391.9447,259.7788" id="Fill-53" fill="#DDDDDD"></path>
                    <path d="M240.8451,5.1543 C247.7651,3.6333 254.6851,2.1123 261.6041,0.5923 C261.9851,0.5083 261.8241,-0.0757 261.4441,0.0083 C254.5241,1.5293 247.6041,3.0503 240.6841,4.5713 C240.3041,4.6543 240.4651,5.2383 240.8451,5.1543" id="Fill-55" fill="#DDDDDD"></path>
                    <path d="M253.2601,8.9045 C257.4201,7.9405 261.5811,6.9765 265.7411,6.0125 C266.1211,5.9255 265.9601,5.3415 265.5801,5.4295 C261.4201,6.3935 257.2601,7.3575 253.0991,8.3215 C252.7201,8.4085 252.8801,8.9925 253.2601,8.9045" id="Fill-57" fill="#DDDDDD"></path>
                    <path d="M534.7308,221.8913 C534.5758,289.5263 535.0328,357.1613 536.1018,424.7873 C536.1078,425.1763 536.7128,425.1773 536.7068,424.7873 C535.6378,357.1613 535.1808,289.5263 535.3358,221.8913 C535.3368,221.5023 534.7318,221.5013 534.7308,221.8913" id="Fill-59" fill="#DDDDDD"></path>
                    <path d="M531.9242,225.6636 C531.3252,283.1086 531.4942,340.5586 532.4312,397.9996 C532.4382,398.3886 533.0432,398.3896 533.0362,397.9996 C532.1002,340.5586 531.9302,283.1086 532.5292,225.6636 C532.5332,225.2746 531.9282,225.2736 531.9242,225.6636" id="Fill-61" fill="#DDDDDD"></path>
                    <path d="M257.3353,6.9119 C256.8233,37.2709 256.4543,67.6319 255.9423,97.9909 C255.9363,98.3799 256.5413,98.3809 256.5483,97.9909 C257.0603,67.6319 257.4293,37.2709 257.9403,6.9119 C257.9473,6.5219 257.3423,6.5219 257.3353,6.9119" id="Fill-63" fill="#DDDDDD"></path>
                    <path d="M255.6722,97.8633 C250.4442,103.9343 241.4902,107.2943 237.5772,114.4303 C237.3902,114.7713 237.9122,115.0773 238.1002,114.7353 C241.9802,107.6603 250.9002,104.3303 256.1002,98.2913 C256.3532,97.9973 255.9272,97.5673 255.6722,97.8633" id="Fill-65" fill="#DDDDDD"></path>
                    <path d="M256.1967,98.4927 C262.6327,103.1027 269.5297,106.9017 274.8007,112.9457 C275.0567,113.2397 275.4827,112.8097 275.2277,112.5177 C269.9207,106.4297 262.9877,102.6147 256.5027,97.9707 C256.1847,97.7427 255.8827,98.2677 256.1967,98.4927" id="Fill-67" fill="#DDDDDD"></path>
                    <path d="M237.9086,115.1667 C250.1836,112.0527 262.7456,111.3687 275.2806,113.1477 C275.6616,113.2017 275.8266,112.6187 275.4416,112.5637 C262.7916,110.7687 250.1296,111.4427 237.7486,114.5837 C237.3706,114.6787 237.5306,115.2627 237.9086,115.1667" id="Fill-69" fill="#DDDDDD"></path>
                    <path d="M241.0248,111.0674 C249.5998,109.5664 258.2148,108.7434 266.9178,108.5864 C267.3058,108.5794 267.3068,107.9744 266.9178,107.9814 C258.1668,108.1394 249.4848,108.9754 240.8648,110.4844 C240.4818,110.5514 240.6438,111.1344 241.0248,111.0674" id="Fill-71" fill="#DDDDDD"></path>
                    <path d="M249.266,113.5176 C254.205,116.9176 260.667,116.5696 265.247,112.7226 C265.546,112.4716 265.117,112.0456 264.82,112.2946 C260.432,115.9796 254.28,116.2356 249.572,112.9946 C249.25,112.7736 248.948,113.2976 249.266,113.5176" id="Fill-73" fill="#DDDDDD"></path>
                    <polygon id="Fill-75" fill="#FFFFFF" points="427.2845 389.699 423.4515 355.033 441.9075 354.19 440.6185 389.866"></polygon>
                    <g id="Group-79" transform="translate(0.000000, 584.247000)">
                        <mask id="mask-8" fill="white">
                            <use xlink:href="#path-7"></use>
                        </mask>
                        <g id="Clip-78"></g>
                        <path d="M449.515,1.3895 C372.282,-3.0405 289.952,6.6125 212.258,5.4435 C183.875,5.0165 155.482,2.9375 127.081,3.8115 C97.866,4.7115 -3.628,5.8315 0.1,16.7495 C3.102,25.5445 96.207,32.1255 137.954,36.4755 C182.651,41.1325 346.697,41.5555 390.231,35.4375 C433.957,29.2925 464.934,31.4975 509.62,28.1695 C518.941,27.4755 593.64,22.0615 582.619,15.3415 C566.201,5.3295 527.27,5.8485 449.515,1.3895" id="Fill-77" fill="#EBF5FF" mask="url(#mask-8)"></path>
                    </g>
                    <path d="M431.847,354.4455 C431.847,354.4455 429.567,364.1925 431.611,372.5245 C433.655,380.8565 434.755,389.8175 434.755,389.8175 L425.086,389.8175 L420.92,354.2885 L431.847,354.4455 Z" id="Fill-80" fill="#C9D9FB"></path>
                    <path d="M207.1605,427.3889 C201.6015,432.1119 196.4375,429.5329 194.7375,428.4349 C194.4695,428.2609 194.1115,428.4159 194.0545,428.7309 C193.9515,429.2849 193.7435,430.2499 193.3225,431.9169 C193.1165,432.7359 192.8985,433.3839 192.6875,433.8939 C192.2325,434.9969 190.9515,435.5049 189.8435,435.0639 L189.3875,434.8829 C188.4755,435.0639 187.5395,434.7269 186.9515,434.0069 L185.9875,432.8259 L185.5935,432.8289 C184.5915,432.8369 183.6815,432.2489 183.2755,431.3319 L183.1075,430.9529 L182.9685,430.9539 C181.3285,430.9719 180.0975,429.4619 180.4445,427.8589 L181.9215,421.0509 C182.0575,420.4169 182.5195,419.9039 183.1365,419.7009 L200.2035,414.0659 L207.1605,427.3889 Z" id="Fill-82" fill="#FFC3A9"></path>
                    <path d="M190.3822,427.4079 L189.3872,434.8829" id="Stroke-84" stroke="#A52E2B" stroke-width="0.75"></path>
                    <path d="M186.9994,425.4758 L186.0044,432.9508" id="Stroke-86" stroke="#A52E2B" stroke-width="0.75"></path>
                    <path d="M183.9838,423.4221 L182.9888,430.8971" id="Stroke-88" stroke="#A52E2B" stroke-width="0.75"></path>
                    <polyline id="Fill-90" fill="#C2EFFF" points="348.5463 437.2932 365.6683 595.7562 363.6383 595.7562 339.7423 437.2932"></polyline>
                    <polygon id="Fill-92" fill="#C2EFFF" points="271.3451 438.0793 254.2231 595.7563 258.1401 595.7563 282.0351 437.2933"></polygon>
                    <path d="M326.6097,317.345 L365.3677,317.345 C383.8357,317.345 398.1077,333.559 395.7647,351.878 L382.8527,452.825 C380.8967,468.122 367.8777,479.581 352.4567,479.581 L289.8237,479.581" id="Fill-94" fill="#182646"></path>
                    <path d="M323.2914,585.8166 L323.4824,586.9886 L340.3514,586.9886 L332.4264,559.1666 L309.4744,559.0486 L319.0894,583.6626 L320.6954,583.6406 C321.9804,583.6226 323.0854,584.5476 323.2914,585.8166" id="Fill-96" fill="#FFC3A9"></path>
                    <polygon id="Fill-98" fill="#FFC3A9" points="238.4174 589.7038 236.7664 559.5208 260.9374 559.6388 258.5784 591.2368"></polygon>
                    <path d="M243.1166,585.9739 C242.9106,584.7049 241.8056,583.7799 240.5206,583.7979 L237.2476,583.8429 C235.6936,583.8649 234.5076,585.2389 234.7136,586.7789 L234.8536,587.8369 L224.6066,593.0929 C223.7276,593.5439 223.1746,594.4489 223.1746,595.4369 C223.1746,596.8919 224.3536,598.0719 225.8096,598.0719 L255.9616,598.0719 C257.3776,598.0719 258.5406,596.9529 258.5946,595.5369 L258.9206,586.9889 L243.2816,586.9889 L243.1166,585.9739 Z" id="Fill-100" fill="#2E475E"></path>
                    <path d="M243.0287,592.2385 C242.6067,592.5445 242.5127,593.1335 242.8187,593.5555 L246.0927,598.0715 L248.4237,598.0715 L244.3457,592.4485 C244.0407,592.0275 243.4517,591.9315 243.0287,592.2385" id="Fill-102" fill="#FFFFFF"></path>
                    <path d="M246.9203,589.7624 C246.4983,590.0684 246.4033,590.6584 246.7103,591.0794 L251.7793,598.0724 L254.1093,598.0724 L248.2363,589.9724 C247.9313,589.5514 247.3423,589.4554 246.9203,589.7624" id="Fill-104" fill="#FFFFFF"></path>
                    <path d="M341.9476,594.9441 L340.4326,586.9891 L323.4826,586.9891 L323.2916,585.8171 C323.0856,584.5481 321.9806,583.6221 320.6956,583.6401 L317.4226,583.6861 C315.8686,583.7081 314.6826,585.0821 314.8876,586.6221 L315.0716,588.0021 L305.8176,593.0771 C304.9736,593.5401 304.4496,594.4251 304.4496,595.3871 L304.4496,595.4371 C304.4496,596.8921 305.6296,598.0721 307.0846,598.0721 L339.3596,598.0721 C341.0126,598.0721 342.2576,596.5681 341.9476,594.9441" id="Fill-106" fill="#2E475E"></path>
                    <path d="M326.6625,592.2385 C326.2405,592.5445 326.1465,593.1335 326.4525,593.5555 L329.7265,598.0715 L332.0575,598.0715 L327.9795,592.4485 C327.6745,592.0275 327.0845,591.9315 326.6625,592.2385" id="Fill-108" fill="#FFFFFF"></path>
                    <path d="M330.5531,589.7624 C330.1311,590.0684 330.0371,590.6584 330.3431,591.0794 L335.4121,598.0724 L337.7421,598.0724 L331.8701,589.9724 C331.5651,589.5514 330.9751,589.4554 330.5531,589.7624" id="Fill-110" fill="#FFFFFF"></path>
                    <polygon id="Fill-112" fill="#37516E" points="229.9281 582.3938 263.4121 582.3938 263.8831 571.3898 229.5061 571.3898"></polygon>
                    <polygon id="Fill-114" fill="#476784" points="308.2162 582.3938 342.1732 582.3938 338.4532 571.3898 303.0972 571.3898"></polygon>
                    <path d="M270.9545,454.2678 L300.8435,435.6578 C280.7615,433.9778 258.5395,439.3368 258.5395,439.3368 C258.5405,439.3328 258.5405,439.3288 258.5415,439.3248 L252.8325,440.6268 C236.5405,444.3468 225.2035,459.1348 225.8445,475.8338 L229.5065,571.3898 L263.8835,571.3898 L267.1855,494.2018 L262.0795,478.8818 C258.9895,469.6118 262.6595,459.4328 270.9545,454.2678" id="Fill-116" fill="#2E475E"></path>
                    <path d="M301.6136,435.7209 C301.3576,435.6969 301.0996,435.6789 300.8426,435.6579 L270.9546,454.2679 C262.6596,459.4329 258.9896,469.6119 262.0796,478.8819 L267.1856,494.2009 L303.0966,571.3889 L338.4536,571.3889 L303.9716,469.3629 C303.9716,469.3629 339.1856,467.4759 352.0766,449.3979 C343.1166,450.8129 321.8926,437.6079 301.6136,435.7209" id="Fill-118" fill="#37516E"></path>
                    <path d="M353.9633,400.3498 C358.4553,398.3848 361.0633,393.6478 360.3283,388.7998 C357.4123,369.5468 349.3523,322.8108 339.0283,316.7158 C322.1373,306.7438 298.9423,308.2268 298.9423,308.2268 L280.3913,314.9868 L267.6003,320.0748 C263.1073,321.8618 260.3633,326.4158 260.8633,331.2258 C263.0663,352.4068 264.5703,406.1498 258.5413,439.3248 C258.5403,439.3288 258.5403,439.3328 258.5393,439.3368 C258.5393,439.3368 280.7613,433.9778 300.8433,435.6578 C301.1003,435.6798 301.3583,435.6968 301.6133,435.7208 C321.8933,437.6078 343.1163,450.8128 352.0763,449.3978 C352.0763,449.3978 356.7933,439.9658 353.9633,400.3498" id="Fill-120" fill="#F7734A"></path>
                    <path d="M267.1859,432.8913 L202.1029,432.8913 L199.7319,414.0263 L241.2469,401.2923 L258.3469,328.7263 C259.1569,325.2893 261.5989,322.4673 264.8829,321.1713 L283.6929,313.7483 L267.1859,432.8913 Z" id="Fill-122" fill="#F7734A"></path>
                    <polygon id="Fill-124" fill="#3C4BB4" points="62.662 434.778 399.396 434.778 399.396 429.433 62.662 429.433"></polygon>
                    <polygon id="Fill-126" fill="#C2EFFF" points="75.473 440.123 386.583 440.123 386.583 434.778 75.473 434.778"></polygon>
                    <path d="M354.6215,411.9948 C354.4765,408.4328 354.2655,404.5728 353.9635,400.3498 L316.4705,418.9788 L354.6215,411.9948 Z" id="Fill-127" fill="#070707"></path>
                    <polyline id="Stroke-128" stroke="#FFFFFF" points="321.4222 341.8694 326.3732 385.7294 280.2222 406.6384"></polyline>
                    <path d="M264.6703,348.0002 L261.7623,419.4502" id="Stroke-129" stroke="#000000"></path>
                    <path d="M272.2943,294.4563 L276.3453,294.4563 C277.6223,294.4563 278.6583,293.4203 278.6583,292.1433 L278.6583,283.8303 C278.6583,282.5533 277.6223,281.5173 276.3453,281.5173 L272.2943,281.5173 C270.2563,281.5173 268.6043,283.1693 268.6043,285.2073 L268.6043,290.7663 C268.6043,292.8043 270.2563,294.4563 272.2943,294.4563" id="Fill-130" fill="#838BC5"></path>
                    <path d="M296.3344,320.5105 C300.5084,318.6405 302.9924,314.2855 302.4774,309.7415 L298.8114,277.4105 C298.3184,273.0645 294.5414,269.8455 290.1724,270.0475 L281.3784,270.4555 C276.8804,270.6645 273.3674,274.4185 273.4574,278.9205 L273.8594,298.9375 C273.9154,301.7045 276.2684,303.8645 279.0294,303.6865 L284.4854,303.3325 L285.2054,313.8305 C285.5824,319.3225 291.3114,322.7605 296.3344,320.5105" id="Fill-131" fill="#FFC3A9"></path>
                    <path d="M284.4857,303.3328 L285.2057,313.8308 C285.2247,314.1158 285.2667,314.3918 285.3147,314.6658 L291.9807,302.2468 L284.4857,303.3328 Z" id="Fill-132" fill="#070707"></path>
                    <polyline id="Stroke-133" stroke="#070707" stroke-width="0.75" points="279.9193 286.2107 279.4883 293.6267 283.4013 293.4447"></polyline>
                    <path d="M278.1761,296.6531 C278.1761,296.6531 280.8051,299.0491 284.7601,296.6381" id="Stroke-134" stroke="#070707" stroke-width="0.75"></path>
                    <path d="M285.3656,287.5422 C285.4036,287.7602 285.2566,287.9682 285.0376,288.0052 C284.8196,288.0422 284.6116,287.8962 284.5746,287.6772 C284.5376,287.4592 284.6836,287.2512 284.9026,287.2142 C285.1216,287.1762 285.3286,287.3232 285.3656,287.5422 Z" id="Stroke-135" stroke="#070707" stroke-width="0.75"></path>
                    <path d="M277.141,287.6814 C277.179,287.8994 277.032,288.1074 276.813,288.1444 C276.595,288.1824 276.387,288.0354 276.35,287.8164 C276.313,287.5984 276.459,287.3904 276.678,287.3534 C276.896,287.3154 277.104,287.4624 277.141,287.6814 Z" id="Stroke-136" stroke="#070707" stroke-width="0.75"></path>
                    <path d="M301.7015,284.4492 C301.4515,282.9492 299.7855,282.2822 300.2015,280.5322 C300.6175,278.7822 302.3675,273.1162 299.7855,272.6992 C297.2015,272.2822 297.1175,271.0322 294.4515,268.6992 C291.7855,266.3662 289.5355,268.0322 286.1175,268.6992 C282.7015,269.3662 282.5355,267.0322 280.7015,267.6162 C278.8675,268.1992 276.5355,265.8662 272.5355,267.1162 C271.2925,267.5042 266.5355,268.9492 266.2015,272.7822 C265.7245,278.2702 269.9515,279.0322 271.7855,279.8662 C273.6175,280.6992 274.0455,282.3142 276.0765,282.6892 C278.6985,283.1732 280.4615,281.4532 282.7015,282.1162 C286.8575,283.3452 289.3675,281.6362 290.9515,280.7202 C291.6425,280.3192 292.5565,280.0262 293.3675,279.8232 L294.0955,288.0712 L295.1655,287.6582 L295.3575,285.1322 C295.4165,284.3562 296.0405,283.6852 296.8175,283.6972 C297.6265,283.7102 298.2515,284.3722 298.2395,285.1592 L298.2145,286.8372 C298.1975,287.9562 297.6705,289.0062 296.7845,289.6892 L300.7195,294.2402 L300.6865,293.9512 C300.4065,291.4782 300.6655,288.9812 301.3665,286.5922 C301.6205,285.7282 301.7815,284.9332 301.7015,284.4492" id="Fill-137" fill="#070707"></path>
                    <path d="M301.6537,294.4563 L297.6027,294.4563 C296.3257,294.4563 295.2907,293.4203 295.2907,292.1433 L295.2907,283.8303 C295.2907,282.5533 296.3257,281.5173 297.6027,281.5173 L301.6537,281.5173 C303.6917,281.5173 305.3437,283.1693 305.3437,285.2073 L305.3437,290.7663 C305.3437,292.8043 303.6917,294.4563 301.6537,294.4563" id="Fill-138" fill="#838BC5"></path>
                    <path d="M288.0931,307.9128 L279.6051,307.9128 L279.6051,306.9618 L288.0931,306.9618 C294.0111,306.9618 298.8251,301.8848 298.8251,295.6448 L298.8251,293.3508 L299.7271,293.3508 L299.7271,295.6448 C299.7271,302.4098 294.5081,307.9128 288.0931,307.9128" id="Fill-139" fill="#838BC5"></path>
                    <path d="M283.9525,308.7576 L279.6585,308.7576 C278.9885,308.7576 278.4455,308.2146 278.4455,307.5446 L278.4455,306.3166 C278.4455,305.6456 278.9885,305.1026 279.6585,305.1026 L283.9525,305.1026 C284.6235,305.1026 285.1665,305.6456 285.1665,306.3166 L285.1665,307.5446 C285.1665,308.2146 284.6235,308.7576 283.9525,308.7576" id="Fill-140" fill="#838BC5"></path>
                    <path d="M279.5902,305.574 C279.2192,305.574 278.9172,305.876 278.9172,306.247 L278.9172,307.614 C278.9172,307.985 279.2192,308.286 279.5902,308.286 L284.0222,308.286 C284.3932,308.286 284.6942,307.985 284.6942,307.614 L284.6942,306.247 C284.6942,305.876 284.3932,305.574 284.0222,305.574 L279.5902,305.574 Z M284.0222,309.229 L279.5902,309.229 C278.6982,309.229 277.9742,308.504 277.9742,307.614 L277.9742,306.247 C277.9742,305.356 278.6982,304.631 279.5902,304.631 L284.0222,304.631 C284.9122,304.631 285.6382,305.356 285.6382,306.247 L285.6382,307.614 C285.6382,308.504 284.9122,309.229 284.0222,309.229 Z" id="Fill-141" fill="#838BC5"></path>
                    <path d="M301.0629,274.1411 L301.0629,272.3841 C301.0629,269.1331 298.4179,266.4891 295.1679,266.4891 L283.0639,266.4891 C281.7449,266.4891 280.5359,266.9341 279.5519,267.6691 C279.9599,267.7301 280.3409,267.7301 280.7019,267.6161 C281.7539,267.2811 282.2599,267.9071 283.1449,268.3751 L287.4809,268.3751 L294.0419,268.3751 L295.1679,268.3751 C297.3779,268.3751 299.1769,270.1731 299.1769,272.3841 L299.1769,272.5711 L299.1769,280.6361 L299.1769,286.7681 L299.8729,286.7681 L301.0629,286.7681 L301.0629,283.0951 L301.0629,276.5601 C301.1799,275.6821 301.2089,274.8281 301.0629,274.1411" id="Fill-142" fill="#838BC5"></path>
                    <polygon id="Fill-143" fill="#C2EFFF" points="99.6761 439.9656 82.5541 597.6426 86.4711 597.6426 110.3661 439.1796"></polygon>
                    <polygon id="Fill-144" fill="#C2EFFF" points="362.3802 439.9656 379.5022 597.6426 375.5852 597.6426 351.6912 439.1796"></polygon>
                    <path d="M224.9125,403.8259 L97.2315,403.8259 C94.2005,403.8259 91.7445,401.3689 91.7445,398.3389 L91.7445,311.9849 C91.7445,308.9549 94.2005,306.4979 97.2315,306.4979 L224.9125,306.4979 C227.9425,306.4979 230.3995,308.9549 230.3995,311.9849 L230.3995,398.3389 C230.3995,401.3689 227.9425,403.8259 224.9125,403.8259" id="Fill-145" fill="#182646"></path>
                    <path d="M224.514,317.344 L224.514,391.709 C224.514,394.484 222.264,396.734 219.489,396.734 L209.404,396.734" id="Stroke-146" stroke="#FFFFFF" stroke-width="0.75"></path>
                    <polygon id="Fill-147" fill="#182646" points="167.0258 386.0241 167.0258 429.4131 134.9568 429.4131 140.1438 389.3251"></polygon>
                    <polygon id="Fill-148" fill="#FFFFFF" points="141.264 397.8738 165.827 397.8738 168.618 387.1448 144.25 387.1448"></polygon>
                    <path d="M287.1781,419.4504 C281.6191,424.1734 276.4551,421.5944 274.7551,420.4954 C274.4871,420.3224 274.1291,420.4774 274.0721,420.7924 C273.9691,421.3454 273.7611,422.3114 273.3411,423.9784 C273.1341,424.7974 272.9161,425.4444 272.7051,425.9544 C272.2501,427.0574 270.9691,427.5654 269.8611,427.1254 L269.4061,426.9444 C268.4931,427.1244 267.5571,426.7884 266.9691,426.0684 L266.0061,424.8874 L265.6111,424.8904 C264.6091,424.8984 263.6991,424.3094 263.2931,423.3934 L263.1261,423.0134 L262.9861,423.0154 C261.3461,423.0334 260.1151,421.5234 260.4621,419.9204 L261.9391,413.1114 C262.0751,412.4784 262.5381,411.9644 263.1541,411.7614 L280.2221,406.1274 L287.1781,419.4504 Z" id="Fill-149" fill="#FFC3A9"></path>
                    <path d="M270.4008,419.469 L269.4058,426.944" id="Stroke-150" stroke="#A52E2B" stroke-width="0.75"></path>
                    <path d="M267.017,417.5368 L266.022,425.0118" id="Stroke-151" stroke="#A52E2B" stroke-width="0.75"></path>
                    <path d="M264.0013,415.4831 L263.0063,422.9581" id="Stroke-152" stroke="#A52E2B" stroke-width="0.75"></path>
                    <polygon id="Fill-153" fill="#182646" points="187.147 429.433 301.85 429.433 301.85 423.773 187.147 423.773"></polygon>
                    <polygon id="Fill-154" fill="#FFFFFF" points="323.308 429.4328 308.688 429.4328 306.801 402.5508 325.195 402.5508"></polygon>
                    <polygon id="Fill-155" fill="#182646" points="306.0355 410.7253 325.9015 410.7253 325.1945 421.3363 306.8015 421.3363"></polygon>
                    <polygon id="Fill-156" fill="#182646" points="305.74 405.066 326.256 405.066 326.256 402.236 305.74 402.236"></polygon>
                    <path d="M114.3822,396.7341 L114.3822,446.7971 C114.3822,463.4271 127.8632,476.9091 144.4942,476.9091 L175.5152,476.9091 C192.1462,476.9091 205.6272,463.4271 205.6272,446.7971 L205.6272,427.8601" id="Stroke-157" stroke="#182646"></path>
                    <path d="M401.0521,391.7136 L401.0521,553.8236 L401.0521,597.9146 C401.0521,598.5586 402.0521,598.5596 402.0521,597.9146 L402.0521,435.8046 L402.0521,391.7136 C402.0521,391.0696 401.0521,391.0686 401.0521,391.7136" id="Fill-158" fill="#334872"></path>
                    <path d="M402.0355,390.3889 L518.1495,390.3889 C518.7925,390.3889 518.7945,389.3889 518.1495,389.3889 L402.0355,389.3889 C401.3915,389.3889 401.3905,390.3889 402.0355,390.3889" id="Fill-159" fill="#334872"></path>
                    <path d="M520.1674,389.8835 C520.4014,420.0175 520.3814,450.1535 520.3734,480.2885 C520.3644,509.1025 520.3074,537.9185 520.4694,566.7335 C520.5274,577.1785 520.5814,587.6295 520.8754,598.0715 C520.8934,598.7145 521.8934,598.7165 521.8754,598.0715 C521.2564,576.0405 521.3924,553.9775 521.3724,531.9395 C521.3434,500.8515 521.4004,469.7625 521.3594,438.6745 C521.3384,422.4105 521.2944,406.1465 521.1674,389.8835 C521.1624,389.2405 520.1624,389.2385 520.1674,389.8835" id="Fill-160" fill="#334872"></path>
                    <path d="M417.3627,460.9294 L504.3217,460.9294 C504.9657,460.9294 504.9667,459.9294 504.3217,459.9294 L417.3627,459.9294 C416.7187,459.9294 416.7177,460.9294 417.3627,460.9294" id="Fill-161" fill="#334872"></path>
                    <path d="M417.3627,535.1184 L504.3217,535.1184 C504.9657,535.1184 504.9667,534.1184 504.3217,534.1184 L417.3627,534.1184 C416.7187,534.1184 416.7177,535.1184 417.3627,535.1184" id="Fill-162" fill="#334872"></path>
                    <path d="M420.4799,354.3669 C421.8269,365.9969 423.0829,377.6369 424.4289,389.2669 C424.5019,389.8989 425.5029,389.9059 425.4289,389.2669 C424.0829,377.6369 422.8269,365.9969 421.4799,354.3669 C421.4069,353.7349 420.4059,353.7279 420.4799,354.3669" id="Fill-163" fill="#334872"></path>
                    <path d="M420.9203,354.8362 C427.9163,354.9252 434.9183,355.0232 441.9073,354.6312 C442.5473,354.5952 442.5523,353.5952 441.9073,353.6312 C434.9183,354.0232 427.9163,353.9252 420.9203,353.8362 C420.2763,353.8282 420.2763,354.8282 420.9203,354.8362" id="Fill-164" fill="#334872"></path>
                    <path d="M441.4076,354.1902 C440.9406,366.0822 440.5446,377.9772 440.0776,389.8692 C440.0526,390.5132 441.0526,390.5122 441.0776,389.8692 C441.5446,377.9772 441.9406,366.0822 442.4076,354.1902 C442.4326,353.5462 441.4326,353.5472 441.4076,354.1902" id="Fill-165" fill="#334872"></path>
                    <path d="M411.7543,328.4163 C412.3383,338.1503 414.4833,350.9153 424.9143,354.7903 C425.5193,355.0143 425.7793,354.0483 425.1803,353.8263 C415.2393,350.1333 413.3063,337.6213 412.7543,328.4163 C412.7163,327.7763 411.7163,327.7723 411.7543,328.4163" id="Fill-166" fill="#334872"></path>
                    <path d="M412.1595,327.8557 C415.0105,338.0027 424.6005,344.3347 427.6315,354.3817 C427.8155,354.9967 428.7815,354.7347 428.5955,354.1167 C425.5615,344.0557 415.9695,337.7177 413.1235,327.5897 C412.9495,326.9717 411.9845,327.2337 412.1595,327.8557" id="Fill-167" fill="#334872"></path>
                    <path d="M428.7269,354.1282 C431.2059,343.6172 431.2469,332.7732 428.8499,322.2422 C428.7069,321.6152 427.7429,321.8802 427.8849,322.5082 C430.2439,332.8682 430.2009,343.5212 427.7629,353.8622 C427.6159,354.4882 428.5799,354.7552 428.7269,354.1282" id="Fill-168" fill="#334872"></path>
                    <path d="M428.101,322.758 C434.262,331.786 439.636,342.8 435.354,353.821 C435.121,354.422 436.087,354.682 436.318,354.087 C440.694,342.825 435.265,331.486 428.964,322.254 C428.604,321.725 427.737,322.225 428.101,322.758" id="Fill-169" fill="#334872"></path>
                    <path d="M436.3422,354.0681 C439.7222,348.9171 443.9342,344.4801 448.9092,340.8481 C449.4242,340.4731 448.9262,339.6051 448.4052,339.9851 C443.2882,343.7201 438.9532,348.2671 435.4792,353.5631 C435.1252,354.1031 435.9902,354.6051 436.3422,354.0681" id="Fill-170" fill="#334872"></path>
                    <path d="M448.1869,340.3953 C447.5529,345.7563 444.0099,351.4093 438.8859,353.4723 C438.2959,353.7093 438.5539,354.6773 439.1519,354.4363 C444.7409,352.1863 448.4949,346.2493 449.1869,340.3953 C449.2629,339.7573 448.2619,339.7633 448.1869,340.3953" id="Fill-171" fill="#334872"></path>
                    <path d="M417.9711,401.9431 L430.1331,401.9431 C430.7761,401.9431 430.7781,400.9431 430.1331,400.9431 L417.9711,400.9431 C417.3271,400.9431 417.3261,401.9431 417.9711,401.9431" id="Fill-172" fill="#334872"></path>
                    <path d="M421.0111,471.2673 L430.7401,471.2673 C431.3841,471.2673 431.3851,470.2673 430.7401,470.2673 L421.0111,470.2673 C420.3671,470.2673 420.3661,471.2673 421.0111,471.2673" id="Fill-173" fill="#334872"></path>
                    <path d="M417.3627,543.6321 L433.1737,543.6321 C433.8167,543.6321 433.8177,542.6321 433.1737,542.6321 L417.3627,542.6321 C416.7187,542.6321 416.7177,543.6321 417.3627,543.6321" id="Fill-174" fill="#334872"></path>
                    <path d="M370.4984,598.3615 L521.4874,598.3615 L564.4834,598.3615 C565.1274,598.3615 565.1284,597.3615 564.4834,597.3615 L413.4954,597.3615 L370.4984,597.3615 C369.8544,597.3615 369.8534,598.3615 370.4984,598.3615" id="Fill-175" fill="#334872"></path>
                    <path d="M191.558,429.4328 L170.963,429.4328 L170.963,428.3168 C170.963,423.7238 174.687,419.9998 179.28,419.9998 L183.242,419.9998 C187.834,419.9998 191.558,423.7238 191.558,428.3168 L191.558,429.4328 Z" id="Fill-176" fill="#182646"></path>
                    <path d="M123.5658,397.0486 L123.5658,466.8476 C123.5658,482.7366 136.4468,495.6166 152.3348,495.6166 C168.2228,495.6166 181.1028,482.7366 181.1028,466.8476 L181.1028,427.8596" id="Stroke-177" stroke="#182646"></path>
                    <path d="M278.7318,287.8689 C278.7318,290.2569 276.7958,292.1919 274.4098,292.1919 C272.0218,292.1919 270.0858,290.2569 270.0858,287.8689 C270.0858,285.4819 272.0218,283.5459 274.4098,283.5459 C276.7958,283.5459 278.7318,285.4819 278.7318,287.8689 Z" id="Stroke-178" stroke="#070707" stroke-width="0.75"></path>
                    <path d="M290.3656,287.8689 C290.3656,290.2569 288.4296,292.1919 286.0426,292.1919 C283.6546,292.1919 281.7196,290.2569 281.7196,287.8689 C281.7196,285.4819 283.6546,283.5459 286.0426,283.5459 C288.4296,283.5459 290.3656,285.4819 290.3656,287.8689 Z" id="Stroke-179" stroke="#070707" stroke-width="0.75"></path>
                    <path d="M278.516,287.1028 L281.778,287.1028" id="Stroke-180" stroke="#070707" stroke-width="0.75"></path>
                    <path d="M226.3431,219.4902 L88.8591,213.9402 C88.2751,213.9162 87.8021,214.3712 87.8021,214.9552 L87.8021,270.0632 C87.8021,270.6472 88.2751,271.1392 88.8591,271.1632 L117.0131,272.2992 C117.4691,272.3182 117.8721,272.6252 118.0171,273.0632 L122.0371,285.2872 C122.3561,286.2562 123.7051,286.3212 124.0381,285.3822 L128.2701,273.4622 C128.4181,273.0442 128.8191,272.7762 129.2681,272.7942 L226.3431,276.7132 C226.9271,276.7362 227.4011,276.2822 227.4011,275.6982 L227.4011,220.5902 C227.4011,220.0062 226.9271,219.5132 226.3431,219.4902" id="Fill-181" fill="#C2EFFF"></path>
                    <path d="M195.3304,235.5312 L112.3254,232.1802 C111.8054,232.1592 111.3834,231.7202 111.3834,231.1992 C111.3834,230.6772 111.8054,230.2732 112.3254,230.2942 L195.3304,233.6452 C195.8514,233.6662 196.2734,234.1042 196.2734,234.6262 C196.2734,235.1472 195.8514,235.5522 195.3304,235.5312" id="Fill-182" fill="#FFFFFF"></path>
                    <path d="M195.3304,247.4783 L112.3254,244.1273 C111.8054,244.1063 111.3834,243.6673 111.3834,243.1463 C111.3834,242.6243 111.8054,242.2203 112.3254,242.2413 L195.3304,245.5923 C195.8514,245.6133 196.2734,246.0513 196.2734,246.5733 C196.2734,247.0943 195.8514,247.4993 195.3304,247.4783" id="Fill-183" fill="#FFFFFF"></path>
                    <path d="M168.1342,258.3284 L112.3252,256.0754 C111.8052,256.0544 111.3832,255.6154 111.3832,255.0944 C111.3832,254.5724 111.8052,254.1684 112.3252,254.1894 L168.1342,256.4424 C168.6552,256.4634 169.0772,256.9014 169.0772,257.4234 C169.0772,257.9444 168.6552,258.3494 168.1342,258.3284" id="Fill-184" fill="#FFFFFF"></path>
                </g>
            </g>
        </g>
    </g>
</svg>