<?xml version="1.0" encoding="UTF-8"?>
<svg width="436px" height="200px" viewBox="0 0 436 200" version="1.1" xmlns="http://www.w3.org/2000/svg" xmlns:xlink="http://www.w3.org/1999/xlink">
    <!-- Generator: Sketch 50 (54983) - http://www.bohemiancoding.com/sketch -->
    <title>fm_header</title>
    <desc>Created with Sketch.</desc>
    <defs>
        <rect id="path-1" x="0" y="0" width="48" height="48"></rect>
    </defs>
    <g id="fm_header" stroke="none" stroke-width="1" fill="none" fill-rule="evenodd">
        <path d="M238.75,32 C236.678932,32 235,30.3210678 235,28.25 C235,26.1789322 236.678932,24.5 238.75,24.5 C238.967517,24.5 239.180708,24.5185195 239.388083,24.5540677 C240.244648,23.0297982 241.877063,22 243.75,22 C246.453049,22 248.655122,24.1449321 248.747015,26.8255923 C248.948226,26.7761967 249.158554,26.75 249.375,26.75 C250.824747,26.75 252,27.9252525 252,29.375 C252,30.8247475 250.824747,32 249.375,32 C249.333097,32 249.291423,31.9990182 249.25,31.9970762 L249.25,32 L238.75,32 Z" id="Combined-Shape-Copy" stroke="#F1F5F7" stroke-width="2" fill="#F8FBFD"></path>
        <path d="M200.75,85 C198.678932,85 197,83.3210678 197,81.25 C197,79.1789322 198.678932,77.5 200.75,77.5 C200.967517,77.5 201.180708,77.5185195 201.388083,77.5540677 C202.244648,76.0297982 203.877063,75 205.75,75 C208.453049,75 210.655122,77.1449321 210.747015,79.8255923 C210.948226,79.7761967 211.158554,79.75 211.375,79.75 C212.824747,79.75 214,80.9252525 214,82.375 C214,83.8247475 212.824747,85 211.375,85 C211.333097,85 211.291423,84.9990182 211.25,84.9970762 L211.25,85 L200.75,85 Z" id="Combined-Shape-Copy-4" stroke="#F1F5F7" fill="#F8FBFD"></path>
        <path d="M118.75,11 C116.678932,11 115,9.32106781 115,7.25 C115,5.17893219 116.678932,3.5 118.75,3.5 C118.967517,3.5 119.180708,3.5185195 119.388083,3.55406774 C120.244648,2.02979817 121.877063,1 123.75,1 C126.453049,1 128.655122,3.14493214 128.747015,5.82559233 C128.948226,5.77619666 129.158554,5.75 129.375,5.75 C130.824747,5.75 132,6.92525253 132,8.375 C132,9.82474747 130.824747,11 129.375,11 C129.333097,11 129.291423,10.9990182 129.25,10.9970762 L129.25,11 L118.75,11 Z" id="Combined-Shape-Copy" stroke="#F1F5F7" stroke-width="2" fill="#F8FBFD"></path>
        <path d="M420.75,11 C418.678932,11 417,9.32106781 417,7.25 C417,5.17893219 418.678932,3.5 420.75,3.5 C420.967517,3.5 421.180708,3.5185195 421.388083,3.55406774 C422.244648,2.02979817 423.877063,1 425.75,1 C428.453049,1 430.655122,3.14493214 430.747015,5.82559233 C430.948226,5.77619666 431.158554,5.75 431.375,5.75 C432.824747,5.75 434,6.92525253 434,8.375 C434,9.82474747 432.824747,11 431.375,11 C431.333097,11 431.291423,10.9990182 431.25,10.9970762 L431.25,11 L420.75,11 Z" id="Combined-Shape-Copy-3" stroke="#F1F5F7" stroke-width="2" fill="#F8FBFD"></path>
        <path d="M183,46.9775785 C182.835319,46.9924187 182.668545,47 182.5,47 C179.462434,47 177,44.5375661 177,41.5 C177,38.4624339 179.462434,36 182.5,36 C182.943264,36 183.374281,36.052437 183.787185,36.1514463 C185.017331,33.6901653 187.561286,32 190.5,32 C194.517522,32 197.797251,35.1588642 197.990953,39.1283575 C198.313295,39.0445829 198.651441,39 199,39 C201.209139,39 203,40.790861 203,43 C203,45.209139 201.209139,47 199,47 L183,47 L183,46.9775785 Z" id="Combined-Shape-Copy" stroke="#F1F5F7" stroke-width="2" fill="#F8FBFD"></path>
        <path d="M4.75,75 C2.67893219,75 1,73.3210678 1,71.25 C1,69.1789322 2.67893219,67.5 4.75,67.5 C4.96751656,67.5 5.18070765,67.5185195 5.38808254,67.5540677 C6.24464826,66.0297982 7.87706301,65 9.75,65 C12.4530488,65 14.6551219,67.1449321 14.7470151,69.8255923 C14.9482264,69.7761967 15.1585539,69.75 15.375,69.75 C16.8247475,69.75 18,70.9252525 18,72.375 C18,73.8247475 16.8247475,75 15.375,75 C15.3330968,75 15.2914228,74.9990182 15.25,74.9970762 L15.25,75 L4.75,75 Z" id="Combined-Shape-Copy" stroke="#F1F5F7" stroke-width="2" fill="#F8FBFD"></path>
        <path d="M35.4852941,47 C30.2467108,47 26,42.8026695 26,37.625 C26,32.4473305 30.2467108,28.25 35.4852941,28.25 C36.0354831,28.25 36.5747311,28.2962987 37.0992676,28.3851694 C39.265875,24.5744954 43.3949241,22 48.1323529,22 C54.9216584,22 60.4614528,27.2875856 60.766203,33.9235671 C61.2578849,33.8100379 61.7703781,33.75 62.2970588,33.75 C65.998991,33.75 69,36.7161135 69,40.375 C69,44.0338865 65.998991,47 62.2970588,47 L35.4852941,47 Z" id="Combined-Shape-Copy-2" stroke="#F1F5F7" stroke-width="2" fill="#F8FBFD"></path>
        <path d="M339.485294,47 C334.246711,47 330,42.8026695 330,37.625 C330,32.4473305 334.246711,28.25 339.485294,28.25 C340.035483,28.25 340.574731,28.2962987 341.099268,28.3851694 C343.265875,24.5744954 347.394924,22 352.132353,22 C358.921658,22 364.461453,27.2875856 364.766203,33.9235671 C365.257885,33.8100379 365.770378,33.75 366.297059,33.75 C369.998991,33.75 373,36.7161135 373,40.375 C373,44.0338865 369.998991,47 366.297059,47 L339.485294,47 Z" id="Combined-Shape-Copy-6" stroke="#F1F5F7" stroke-width="2" fill="#F8FBFD"></path>
        <g id="Group-6" transform="translate(15.000000, 194.000000)">
            <g id="Group-5" transform="translate(0.500000, 0.250000)"></g>
        </g>
        <g id="Group-8" transform="translate(45.000000, 35.000000)">
            <circle id="Oval-4" stroke="#3D87AF" stroke-width="2" fill="#7BB6D5" cx="18" cy="17" r="16"></circle>
            <rect id="Rectangle-3" fill="#3D87AF" x="0" y="16" width="36" height="2" rx="1"></rect>
            <rect id="Rectangle" stroke="#AF7F27" fill="#CEA455" x="13.5" y="45.5" width="9" height="7" rx="1"></rect>
            <path d="M9.04429321,17.1795555 L16.0827839,45.8691394" id="Path-6" stroke="#3D87AF"></path>
            <path d="M18.0472191,17.2310576 L18.0472191,45.5962621" id="Path-8" stroke="#3D87AF"></path>
            <path d="M27.1697034,17.3995428 L20.070146,45.744063" id="Path-9" stroke="#3D87AF"></path>
            <path d="M34.3847725,18.0580333 L22.1754762,45.7720213" id="Path-10" stroke="#3D87AF"></path>
            <path d="M1.13872878,17.2619588 L14.0929654,45.7860004" id="Path-11" stroke="#3D87AF"></path>
            <path d="M9.0991162,17.1189904 C9.5300406,13.3025869 10.4859359,10.0446262 11.9668021,7.34510839 C13.4476683,4.64559057 15.427194,2.55247954 17.9053792,1.0657753" id="Path-12" stroke="#3D87AF"></path>
            <path d="M18.0503252,17.0828417 L18.0503252,1.31456847" id="Path-13" stroke="#3D87AF"></path>
            <path d="M27.2363258,17.1074088 C27.6983542,14.39808 26.870442,11.2113724 24.7525891,7.54728592 C22.6347361,3.88319945 20.3800586,1.73673427 17.9885564,1.10789038" id="Path-14" stroke="#3D87AF"></path>
        </g>
        <path d="M86.75,75 C76.3946609,75 68,66.6053391 68,56.25 C68,45.8946609 76.3946609,37.5 86.75,37.5 C87.8375828,37.5 88.9035383,37.5925975 89.9404127,37.7703387 C94.2232413,30.1489909 102.385315,25 111.75,25 C125.17072,25 136.121476,35.5751713 136.72389,48.8471342 C137.695819,48.6200759 138.708887,48.5 139.75,48.5 C147.067773,48.5 153,54.4322271 153,61.75 C153,69.0677729 147.067773,75 139.75,75 L86.75,75 Z" id="Combined-Shape-Copy" stroke="#EFF3F6" stroke-width="2" fill="#F7FAFC" opacity="0.897377232"></path>
        <path d="M411,79.9775785 C410.835319,79.9924187 410.668545,80 410.5,80 C407.462434,80 405,77.5375661 405,74.5 C405,71.4624339 407.462434,69 410.5,69 C410.943264,69 411.374281,69.052437 411.787185,69.1514463 C413.017331,66.6901653 415.561286,65 418.5,65 C422.517522,65 425.797251,68.1588642 425.990953,72.1283575 C426.313295,72.0445829 426.651441,72 427,72 C429.209139,72 431,73.790861 431,76 C431,78.209139 429.209139,80 427,80 L411,80 L411,79.9775785 Z" id="Combined-Shape-Copy-5" stroke="#F1F5F7" stroke-width="2" fill="#F8FBFD"></path>
        <g id="Group-9" transform="translate(30.000000, 32.000000)">
            <g id="Group-7" transform="translate(0.000000, 32.000000)">
                <g id="Group" transform="translate(88.000000, 41.000000)">
                    <path d="M1.5,93.5 L29,93.5 L29,2 C29,1.72385763 28.7761424,1.5 28.5,1.5 L2,1.5 C1.72385763,1.5 1.5,1.72385763 1.5,2 L1.5,93.5 Z" id="Rectangle-3-Copy-5" stroke="#979797" stroke-width="3" fill="#E6E9EC"></path>
                    <rect id="window-copy-2" stroke="#AFB6BC" stroke-width="2" fill="#BFC5CB" x="6" y="36" width="7" height="10" rx="1"></rect>
                    <rect id="window-copy-4" stroke="#AFB6BC" stroke-width="2" fill="#BFC5CB" x="6" y="50" width="7" height="10" rx="1"></rect>
                    <rect id="window-copy-6" stroke="#AFB6BC" stroke-width="2" fill="#BFC5CB" x="6" y="64" width="7" height="10" rx="1"></rect>
                    <rect id="window-copy-6" stroke="#AFB6BC" stroke-width="2" fill="#BFC5CB" x="11" y="80" width="8" height="13" rx="1"></rect>
                    <rect id="window-copy-3" stroke="#AFB6BC" stroke-width="2" fill="#BFC5CB" x="17" y="36" width="7" height="10" rx="1"></rect>
                    <rect id="window-copy-2" stroke="#AFB6BC" stroke-width="2" fill="#BFC5CB" x="6" y="22" width="7" height="10" rx="1"></rect>
                    <rect id="window-copy-3" stroke="#AFB6BC" stroke-width="2" fill="#BFC5CB" x="17" y="22" width="7" height="10" rx="1"></rect>
                    <rect id="window-copy-2" stroke="#AFB6BC" stroke-width="2" fill="#BFC5CB" x="6" y="8" width="7" height="10" rx="1"></rect>
                    <rect id="window-copy-3" stroke="#AFB6BC" stroke-width="2" fill="#BFC5CB" x="17" y="8" width="7" height="10" rx="1"></rect>
                    <rect id="window-copy-5" stroke="#AFB6BC" stroke-width="2" fill="#BFC5CB" x="17" y="50" width="7" height="10" rx="1"></rect>
                    <rect id="window-copy-7" stroke="#AFB6BC" stroke-width="2" fill="#BFC5CB" x="17" y="64" width="7" height="10" rx="1"></rect>
                </g>
                <g id="Group" transform="translate(110.000000, 0.000000)">
                    <path d="M1.5,134.5 L29,134.5 L29,2 C29,1.72385763 28.7761424,1.5 28.5,1.5 L2,1.5 C1.72385763,1.5 1.5,1.72385763 1.5,2 L1.5,134.5 Z" id="Rectangle-3-Copy-5" stroke="#979797" stroke-width="3" fill="#E6E9EC"></path>
                    <rect id="window-copy-2" stroke="#AFB6BC" stroke-width="2" fill="#BFC5CB" x="6" y="77" width="7" height="10" rx="1"></rect>
                    <rect id="window-copy-4" stroke="#AFB6BC" stroke-width="2" fill="#BFC5CB" x="6" y="91" width="7" height="10" rx="1"></rect>
                    <rect id="window-copy-6" stroke="#AFB6BC" stroke-width="2" fill="#BFC5CB" x="6" y="105" width="7" height="10" rx="1"></rect>
                    <rect id="window-copy-6" stroke="#AFB6BC" stroke-width="2" fill="#BFC5CB" x="11" y="121" width="8" height="13" rx="1"></rect>
                    <rect id="window-copy-3" stroke="#AFB6BC" stroke-width="2" fill="#BFC5CB" x="17" y="77" width="7" height="10" rx="1"></rect>
                    <rect id="window-copy-2" stroke="#AFB6BC" stroke-width="2" fill="#BFC5CB" x="6" y="63" width="7" height="10" rx="1"></rect>
                    <rect id="window-copy-3" stroke="#AFB6BC" stroke-width="2" fill="#BFC5CB" x="17" y="63" width="7" height="10" rx="1"></rect>
                    <rect id="window-copy-2" stroke="#AFB6BC" stroke-width="2" fill="#BFC5CB" x="6" y="49" width="7" height="10" rx="1"></rect>
                    <rect id="window-copy-3" stroke="#AFB6BC" stroke-width="2" fill="#BFC5CB" x="17" y="49" width="7" height="10" rx="1"></rect>
                    <rect id="window-copy-2" stroke="#AFB6BC" stroke-width="2" fill="#BFC5CB" x="6" y="35" width="7" height="10" rx="1"></rect>
                    <rect id="window-copy-3" stroke="#AFB6BC" stroke-width="2" fill="#BFC5CB" x="17" y="35" width="7" height="10" rx="1"></rect>
                    <rect id="window-copy-2" stroke="#AFB6BC" stroke-width="2" fill="#BFC5CB" x="6" y="21" width="7" height="10" rx="1"></rect>
                    <rect id="window-copy-3" stroke="#AFB6BC" stroke-width="2" fill="#BFC5CB" x="17" y="21" width="7" height="10" rx="1"></rect>
                    <rect id="window-copy-2" stroke="#AFB6BC" stroke-width="2" fill="#BFC5CB" x="6" y="7" width="7" height="10" rx="1"></rect>
                    <rect id="window-copy-3" stroke="#AFB6BC" stroke-width="2" fill="#BFC5CB" x="17" y="7" width="7" height="10" rx="1"></rect>
                    <rect id="window-copy-5" stroke="#AFB6BC" stroke-width="2" fill="#BFC5CB" x="17" y="91" width="7" height="10" rx="1"></rect>
                    <rect id="window-copy-7" stroke="#AFB6BC" stroke-width="2" fill="#BFC5CB" x="17" y="105" width="7" height="10" rx="1"></rect>
                </g>
                <g id="Group" transform="translate(144.000000, 83.000000)">
                    <path d="M1.5,51.5 L29,51.5 L29,2 C29,1.72385763 28.7761424,1.5 28.5,1.5 L2,1.5 C1.72385763,1.5 1.5,1.72385763 1.5,2 L1.5,51.5 Z" id="Rectangle-3-Copy-5" stroke="#979797" stroke-width="3" fill="#E6E9EC"></path>
                    <rect id="window-copy-4" stroke="#AFB6BC" stroke-width="2" fill="#BFC5CB" x="6" y="8" width="7" height="10" rx="1"></rect>
                    <rect id="window-copy-6" stroke="#AFB6BC" stroke-width="2" fill="#BFC5CB" x="6" y="22" width="7" height="10" rx="1"></rect>
                    <rect id="window-copy-6" stroke="#AFB6BC" stroke-width="2" fill="#BFC5CB" x="11" y="38" width="8" height="13" rx="1"></rect>
                    <rect id="window-copy-5" stroke="#AFB6BC" stroke-width="2" fill="#BFC5CB" x="17" y="8" width="7" height="10" rx="1"></rect>
                    <rect id="window-copy-7" stroke="#AFB6BC" stroke-width="2" fill="#BFC5CB" x="17" y="22" width="7" height="10" rx="1"></rect>
                </g>
                <g id="Group-2-Copy" transform="translate(132.000000, 56.000000)">
                    <path d="M1.5,79 L19.5,79 L19.5,2 C19.5,1.72385763 19.2761424,1.5 19,1.5 L2,1.5 C1.72385763,1.5 1.5,1.72385763 1.5,2 L1.5,79 Z" id="Rectangle-3-Copy-6" stroke="#979797" stroke-width="3" fill="#E6E9EC"></path>
                    <rect id="window-copy-2" stroke="#AFB6BC" stroke-width="2" fill="#BFC5CB" x="7" y="21" width="7" height="10" rx="1"></rect>
                    <rect id="window-copy-8" stroke="#AFB6BC" stroke-width="2" fill="#BFC5CB" x="7" y="7" width="7" height="10" rx="1"></rect>
                    <rect id="window-copy-4" stroke="#AFB6BC" stroke-width="2" fill="#BFC5CB" x="7" y="35" width="7" height="10" rx="1"></rect>
                    <rect id="window-copy-6" stroke="#AFB6BC" stroke-width="2" fill="#BFC5CB" x="7" y="49" width="7" height="10" rx="1"></rect>
                    <rect id="window-copy-6" stroke="#AFB6BC" stroke-width="2" fill="#BFC5CB" x="6" y="65" width="9" height="13" rx="1"></rect>
                </g>
                <g id="Group-Copy" transform="translate(171.000000, 42.000000)">
                    <path d="M1.5,92.5 L29,92.5 L29,2 C29,1.72385763 28.7761424,1.5 28.5,1.5 L2,1.5 C1.72385763,1.5 1.5,1.72385763 1.5,2 L1.5,92.5 Z" id="Rectangle-3-Copy-5" stroke="#979797" stroke-width="3" fill="#E6E9EC"></path>
                    <rect id="window-copy-2" stroke="#AFB6BC" stroke-width="2" fill="#BFC5CB" x="6" y="35" width="7" height="10" rx="1"></rect>
                    <rect id="window-copy-4" stroke="#AFB6BC" stroke-width="2" fill="#BFC5CB" x="6" y="49" width="7" height="10" rx="1"></rect>
                    <rect id="window-copy-6" stroke="#AFB6BC" stroke-width="2" fill="#BFC5CB" x="6" y="63" width="7" height="10" rx="1"></rect>
                    <rect id="window-copy-6" stroke="#AFB6BC" stroke-width="2" fill="#BFC5CB" x="11" y="79" width="8" height="13" rx="1"></rect>
                    <rect id="window-copy-3" stroke="#AFB6BC" stroke-width="2" fill="#BFC5CB" x="17" y="35" width="7" height="10" rx="1"></rect>
                    <rect id="window-copy-2" stroke="#AFB6BC" stroke-width="2" fill="#BFC5CB" x="6" y="21" width="7" height="10" rx="1"></rect>
                    <rect id="window-copy-3" stroke="#AFB6BC" stroke-width="2" fill="#BFC5CB" x="17" y="21" width="7" height="10" rx="1"></rect>
                    <rect id="window-copy-2" stroke="#AFB6BC" stroke-width="2" fill="#BFC5CB" x="6" y="7" width="7" height="10" rx="1"></rect>
                    <rect id="window-copy-3" stroke="#AFB6BC" stroke-width="2" fill="#BFC5CB" x="17" y="7" width="7" height="10" rx="1"></rect>
                    <rect id="window-copy-5" stroke="#AFB6BC" stroke-width="2" fill="#BFC5CB" x="17" y="49" width="7" height="10" rx="1"></rect>
                    <rect id="window-copy-7" stroke="#AFB6BC" stroke-width="2" fill="#BFC5CB" x="17" y="63" width="7" height="10" rx="1"></rect>
                </g>
                <g id="Group-2" transform="translate(195.000000, 56.000000)">
                    <path d="M1.5,79 L19.5,79 L19.5,2 C19.5,1.72385763 19.2761424,1.5 19,1.5 L2,1.5 C1.72385763,1.5 1.5,1.72385763 1.5,2 L1.5,79 Z" id="Rectangle-3-Copy-6" stroke="#979797" stroke-width="3" fill="#E6E9EC"></path>
                    <rect id="window-copy-2" stroke="#AFB6BC" stroke-width="2" fill="#BFC5CB" x="7" y="21" width="7" height="10" rx="1"></rect>
                    <rect id="window-copy-8" stroke="#AFB6BC" stroke-width="2" fill="#BFC5CB" x="7" y="7" width="7" height="10" rx="1"></rect>
                    <rect id="window-copy-4" stroke="#AFB6BC" stroke-width="2" fill="#BFC5CB" x="7" y="35" width="7" height="10" rx="1"></rect>
                    <rect id="window-copy-6" stroke="#AFB6BC" stroke-width="2" fill="#BFC5CB" x="7" y="49" width="7" height="10" rx="1"></rect>
                    <rect id="window-copy-6" stroke="#AFB6BC" stroke-width="2" fill="#BFC5CB" x="6" y="65" width="9" height="13" rx="1"></rect>
                </g>
                <g id="Group-4" transform="translate(0.000000, 56.000000)">
                    <path d="M1.5,78.5 L28.5,78.5 L28.5,2 C28.5,1.72385763 28.2761424,1.5 28,1.5 L2,1.5 C1.72385763,1.5 1.5,1.72385763 1.5,2 L1.5,78.5 Z" id="Rectangle-3-Copy-3" stroke="#979797" stroke-width="3" fill="#E6E9EC"></path>
                    <rect id="window" stroke="#AFB6BC" stroke-width="2" fill="#BFC5CB" x="6" y="7" width="7" height="10" rx="1"></rect>
                    <rect id="window-copy-2" stroke="#AFB6BC" stroke-width="2" fill="#BFC5CB" x="6" y="21" width="7" height="10" rx="1"></rect>
                    <rect id="window-copy-4" stroke="#AFB6BC" stroke-width="2" fill="#BFC5CB" x="6" y="35" width="7" height="10" rx="1"></rect>
                    <rect id="window-copy-6" stroke="#AFB6BC" stroke-width="2" fill="#BFC5CB" x="6" y="49" width="7" height="10" rx="1"></rect>
                    <rect id="window-copy-6" stroke="#AFB6BC" stroke-width="2" fill="#BFC5CB" x="11" y="65" width="8" height="13" rx="1"></rect>
                    <rect id="window-copy" stroke="#AFB6BC" stroke-width="2" fill="#BFC5CB" x="17" y="7" width="7" height="10" rx="1"></rect>
                    <rect id="window-copy-3" stroke="#AFB6BC" stroke-width="2" fill="#BFC5CB" x="17" y="21" width="7" height="10" rx="1"></rect>
                    <rect id="window-copy-5" stroke="#AFB6BC" stroke-width="2" fill="#BFC5CB" x="17" y="35" width="7" height="10" rx="1"></rect>
                    <rect id="window-copy-7" stroke="#AFB6BC" stroke-width="2" fill="#BFC5CB" x="17" y="49" width="7" height="10" rx="1"></rect>
                </g>
                <g id="Group-3" transform="translate(24.000000, 70.000000)">
                    <path d="M1.5,64.5 L29,64.5 L29,2 C29,1.72385763 28.7761424,1.5 28.5,1.5 L2,1.5 C1.72385763,1.5 1.5,1.72385763 1.5,2 L1.5,64.5 Z" id="Rectangle-3-Copy-5" stroke="#979797" stroke-width="3" fill="#E6E9EC"></path>
                    <rect id="window-copy-2" stroke="#AFB6BC" stroke-width="2" fill="#BFC5CB" x="6" y="7" width="7" height="10" rx="1"></rect>
                    <rect id="window-copy-4" stroke="#AFB6BC" stroke-width="2" fill="#BFC5CB" x="6" y="21" width="7" height="10" rx="1"></rect>
                    <rect id="window-copy-6" stroke="#AFB6BC" stroke-width="2" fill="#BFC5CB" x="6" y="35" width="7" height="10" rx="1"></rect>
                    <rect id="window-copy-6" stroke="#AFB6BC" stroke-width="2" fill="#BFC5CB" x="11" y="51" width="8" height="13" rx="1"></rect>
                    <rect id="window-copy-3" stroke="#AFB6BC" stroke-width="2" fill="#BFC5CB" x="17" y="7" width="7" height="10" rx="1"></rect>
                    <rect id="window-copy-5" stroke="#AFB6BC" stroke-width="2" fill="#BFC5CB" x="17" y="21" width="7" height="10" rx="1"></rect>
                    <rect id="window-copy-7" stroke="#AFB6BC" stroke-width="2" fill="#BFC5CB" x="17" y="35" width="7" height="10" rx="1"></rect>
                </g>
                <g id="Group-2" transform="translate(61.000000, 28.000000)">
                    <path d="M1.5,107 L19.5,107 L19.5,2 C19.5,1.72385763 19.2761424,1.5 19,1.5 L2,1.5 C1.72385763,1.5 1.5,1.72385763 1.5,2 L1.5,107 Z" id="Rectangle-3-Copy-6" stroke="#979797" stroke-width="3" fill="#E6E9EC"></path>
                    <rect id="window-copy-2" stroke="#AFB6BC" stroke-width="2" fill="#BFC5CB" x="7" y="49" width="7" height="10" rx="1"></rect>
                    <rect id="window-copy-8" stroke="#AFB6BC" stroke-width="2" fill="#BFC5CB" x="7" y="35" width="7" height="10" rx="1"></rect>
                    <rect id="window-copy-9" stroke="#AFB6BC" stroke-width="2" fill="#BFC5CB" x="7" y="21" width="7" height="10" rx="1"></rect>
                    <rect id="window-copy-10" stroke="#AFB6BC" stroke-width="2" fill="#BFC5CB" x="7" y="7" width="7" height="10" rx="1"></rect>
                    <rect id="window-copy-4" stroke="#AFB6BC" stroke-width="2" fill="#BFC5CB" x="7" y="63" width="7" height="10" rx="1"></rect>
                    <rect id="window-copy-6" stroke="#AFB6BC" stroke-width="2" fill="#BFC5CB" x="7" y="77" width="7" height="10" rx="1"></rect>
                    <rect id="window-copy-6" stroke="#AFB6BC" stroke-width="2" fill="#BFC5CB" x="6" y="93" width="9" height="13" rx="1"></rect>
                </g>
            </g>
            <g id="Building" transform="translate(193.000000, 0.000000)">
                <path d="M37.5,9.5 L106.5,9.5 L106.5,2 C106.5,1.72385763 106.276142,1.5 106,1.5 L38,1.5 C37.7238576,1.5 37.5,1.72385763 37.5,2 L37.5,9.5 Z" id="roof-side" stroke="#4E5458" stroke-width="3" fill="#A3AEB6"></path>
                <path d="M9.5,9.5 L78.5,9.5 L78.5,2 C78.5,1.72385763 78.2761424,1.5 78,1.5 L10,1.5 C9.72385763,1.5 9.5,1.72385763 9.5,2 L9.5,9.5 Z" id="roof" stroke="#4E5458" stroke-width="3" fill="#BDC6CC"></path>
                <path d="M52.5,166.5 L137.5,166.5 L137.5,10 C137.5,9.72385763 137.276142,9.5 137,9.5 L53,9.5 C52.7238576,9.5 52.5,9.72385763 52.5,10 L52.5,166.5 Z" id="building-front-side" stroke="#4E5458" stroke-width="3" fill="#B7BFC4"></path>
                <g id="Barcode" transform="translate(88.000000, 22.000000)">
                    <mask id="mask-2" fill="white">
                        <use xlink:href="#path-1"></use>
                    </mask>
                    <g id="Rectangle-2"></g>
                    <g mask="url(#mask-2)">
                        <g transform="translate(24.000000, 24.000000) rotate(-15.000000) translate(-24.000000, -24.000000) translate(2.000000, 5.000000)">
                            <rect id="Rectangle-3" fill="#F0F0F0" x="0" y="0" width="44" height="38"></rect>
                            <path d="M4.75,4 C5.16421356,4 5.5,4.33578644 5.5,4.75 L5.5,28.75 C5.5,29.1642136 5.16421356,29.5 4.75,29.5 C4.33578644,29.5 4,29.1642136 4,28.75 L4,4.75 C4,4.33578644 4.33578644,4 4.75,4 Z M10.75,4 C11.1642136,4 11.5,4.33578644 11.5,4.75 L11.5,28.75 C11.5,29.1642136 11.1642136,29.5 10.75,29.5 C10.3357864,29.5 10,29.1642136 10,28.75 L10,4.75 C10,4.33578644 10.3357864,4 10.75,4 Z M13.75,4 C14.1642136,4 14.5,4.33578644 14.5,4.75 L14.5,28.75 C14.5,29.1642136 14.1642136,29.5 13.75,29.5 C13.3357864,29.5 13,29.1642136 13,28.75 L13,4.75 C13,4.33578644 13.3357864,4 13.75,4 Z M18.25,4 C18.6642136,4 19,4.33578644 19,4.75 L19,28.75 C19,29.1642136 18.6642136,29.5 18.25,29.5 C17.8357864,29.5 17.5,29.1642136 17.5,28.75 L17.5,4.75 C17.5,4.33578644 17.8357864,4 18.25,4 Z M21.25,4 C21.6642136,4 22,4.33578644 22,4.75 L22,28.75 C22,29.1642136 21.6642136,29.5 21.25,29.5 C20.8357864,29.5 20.5,29.1642136 20.5,28.75 L20.5,4.75 C20.5,4.33578644 20.8357864,4 21.25,4 Z M25.75,4 C26.1642136,4 26.5,4.33578644 26.5,4.75 L26.5,28.75 C26.5,29.1642136 26.1642136,29.5 25.75,29.5 C25.3357864,29.5 25,29.1642136 25,28.75 L25,4.75 C25,4.33578644 25.3357864,4 25.75,4 Z M27.625,4 C27.8321068,4 28,4.16789322 28,4.375 L28,29.125 C28,29.3321068 27.8321068,29.5 27.625,29.5 C27.4178932,29.5 27.25,29.3321068 27.25,29.125 L27.25,4.375 C27.25,4.16789322 27.4178932,4 27.625,4 Z M30.625,4 C30.8321068,4 31,4.16789322 31,4.375 L31,29.125 C31,29.3321068 30.8321068,29.5 30.625,29.5 C30.4178932,29.5 30.25,29.3321068 30.25,29.125 L30.25,4.375 C30.25,4.16789322 30.4178932,4 30.625,4 Z M32.5,4 C32.9142136,4 33.25,4.33578644 33.25,4.75 L33.25,28.75 C33.25,29.1642136 32.9142136,29.5 32.5,29.5 C32.0857864,29.5 31.75,29.1642136 31.75,28.75 L31.75,4.75 C31.75,4.33578644 32.0857864,4 32.5,4 Z M35.5,4 C35.9142136,4 36.25,4.33578644 36.25,4.75 L36.25,28.75 C36.25,29.1642136 35.9142136,29.5 35.5,29.5 C35.0857864,29.5 34.75,29.1642136 34.75,28.75 L34.75,4.75 C34.75,4.33578644 35.0857864,4 35.5,4 Z M39.25,4 C39.6642136,4 40,4.33578644 40,4.75 L40,28.75 C40,29.1642136 39.6642136,29.5 39.25,29.5 C38.8357864,29.5 38.5,29.1642136 38.5,28.75 L38.5,4.75 C38.5,4.33578644 38.8357864,4 39.25,4 Z M7.375,4 C7.58210678,4 7.75,4.16789322 7.75,4.375 L7.75,32.125 C7.75,32.3321068 7.58210678,32.5 7.375,32.5 C7.16789322,32.5 7,32.3321068 7,32.125 L7,4.375 C7,4.16789322 7.16789322,4 7.375,4 Z M8.875,4 C9.08210678,4 9.25,4.16789322 9.25,4.375 L9.25,32.125 C9.25,32.3321068 9.08210678,32.5 8.875,32.5 C8.66789322,32.5 8.5,32.3321068 8.5,32.125 L8.5,4.375 C8.5,4.16789322 8.66789322,4 8.875,4 Z M16.375,4 C16.5821068,4 16.75,4.16789322 16.75,4.375 L16.75,29.125 C16.75,29.3321068 16.5821068,29.5 16.375,29.5 C16.1678932,29.5 16,29.3321068 16,29.125 L16,4.375 C16,4.16789322 16.1678932,4 16.375,4 Z" id="bar-code" fill="#4E5458"></path>
                            <path d="M4.15147552,33.6956522 L4.4093933,33.2347826 C4.55677489,33.3782609 4.71234435,33.4565217 4.95388639,33.4565217 C5.39193723,33.4565217 5.63757321,33.0608696 5.63757321,32.6217391 L5.63757321,32.5608696 C5.50656735,32.7565217 5.23227384,32.9347826 4.93341673,32.9347826 C4.44214477,32.9347826 4,32.6130435 4,31.9956522 C4,31.4304348 4.42576903,31 5.04804685,31 C5.87502133,31 6.22300563,31.6782609 6.22300563,32.5 C6.22300563,33.373913 5.7603912,33.9956522 4.95388639,33.9956522 C4.62227782,33.9956522 4.34389037,33.8782609 4.15147552,33.6956522 Z M5.62938534,32.1434783 C5.60891568,31.8652174 5.46153409,31.5347826 5.07261045,31.5347826 C4.76147154,31.5347826 4.59362029,31.7652174 4.59362029,31.9695652 C4.59362029,32.2782609 4.83516234,32.4130435 5.09717405,32.4130435 C5.3018707,32.4130435 5.50247342,32.3130435 5.62938534,32.1434783 Z M11.1987548,33.9478261 L12.1772048,31.5913043 L10.8016433,31.5913043 L10.8016433,31.0478261 L12.8527037,31.0478261 L12.8527037,31.4782609 L11.8374083,33.9478261 L11.1987548,33.9478261 Z M13.353187,33.9478261 L14.331637,31.5913043 L12.9560755,31.5913043 L12.9560755,31.0478261 L15.007136,31.0478261 L15.007136,31.4782609 L13.9918406,33.9478261 L13.353187,33.9478261 Z M15.094132,33.5347826 L15.3970831,33.1304348 C15.585404,33.3391304 15.8842611,33.4608696 16.1503667,33.4608696 C16.4819753,33.4608696 16.6662023,33.3086957 16.6662023,33.0869565 C16.6662023,32.8521739 16.4983511,32.7434783 16.1176153,32.7434783 C16.0029852,32.7434783 15.8187582,32.7434783 15.7778188,32.7478261 L15.7778188,32.2086957 C15.826946,32.2130435 16.011173,32.2130435 16.1176153,32.2130435 C16.4205663,32.2130435 16.621169,32.1086957 16.621169,31.8913043 C16.621169,31.6608696 16.4000967,31.5434783 16.1135213,31.5434783 C15.8474157,31.5434783 15.6099676,31.6521739 15.4175527,31.8478261 L15.1309774,31.4652174 C15.3520498,31.2 15.6959402,31.0043478 16.1749303,31.0043478 C16.8135839,31.0043478 17.2066015,31.3086957 17.2066015,31.7913043 C17.2066015,32.1565217 16.9118383,32.3956522 16.6088872,32.4521739 C16.8872747,32.4826087 17.2475408,32.7130435 17.2475408,33.1478261 C17.2475408,33.6478261 16.8258657,34 16.1708364,34 C15.6672826,34 15.2947347,33.7956522 15.094132,33.5347826 Z M17.5392335,33.5652174 L17.8585603,33.1478261 C18.0468812,33.3521739 18.3007051,33.4608696 18.5872804,33.4608696 C18.9107011,33.4608696 19.0949281,33.2652174 19.0949281,33.026087 C19.0949281,32.7608696 18.914795,32.5826087 18.6036561,32.5826087 C18.3784898,32.5826087 18.1942628,32.6565217 18.0305055,32.8217391 L17.6252061,32.7043478 L17.6252061,31.0478261 L19.5002274,31.0478261 L19.5002274,31.5782609 L18.1942628,31.5782609 L18.1942628,32.3043478 C18.3375505,32.1695652 18.5586228,32.0652174 18.8083528,32.0652174 C19.2709672,32.0652174 19.6844544,32.4130435 19.6844544,33 C19.6844544,33.6130435 19.2504975,34 18.5913743,34 C18.1164781,34 17.7725877,33.8347826 17.5392335,33.5652174 Z M20.2463467,33.9478261 L21.2247967,31.5913043 L19.8492352,31.5913043 L19.8492352,31.0478261 L21.9002957,31.0478261 L21.9002957,31.4782609 L20.8850003,33.9478261 L20.2463467,33.9478261 Z M22.0978279,33.9478261 L22.0978279,33.4608696 C23.2154717,32.5869565 23.5429863,32.2869565 23.5429863,31.9304348 C23.5429863,31.6782609 23.3260078,31.5521739 23.0967476,31.5521739 C22.7897026,31.5521739 22.5522545,31.6826087 22.3680275,31.8869565 L22.0364189,31.4782609 C22.3025246,31.1521739 22.707824,31.0043478 23.0885597,31.0043478 C23.6698982,31.0043478 24.1325127,31.3521739 24.1325127,31.9304348 C24.1325127,32.426087 23.7476829,32.8565217 23.0148689,33.4043478 L24.1529823,33.4043478 L24.1529823,33.9478261 L22.0978279,33.9478261 Z M25.8994712,33.5652174 L26.218798,33.1478261 C26.4071189,33.3521739 26.6609427,33.4608696 26.947518,33.4608696 C27.2709388,33.4608696 27.4551657,33.2652174 27.4551657,33.026087 C27.4551657,32.7608696 27.2750327,32.5826087 26.9638938,32.5826087 C26.7387275,32.5826087 26.5545005,32.6565217 26.3907432,32.8217391 L25.9854438,32.7043478 L25.9854438,31.0478261 L27.8604651,31.0478261 L27.8604651,31.5782609 L26.5545005,31.5782609 L26.5545005,32.3043478 C26.6977881,32.1695652 26.9188605,32.0652174 27.1685904,32.0652174 C27.6312049,32.0652174 28.0446921,32.4130435 28.0446921,33 C28.0446921,33.6130435 27.6107352,34 26.951612,34 C26.4767158,34 26.1328254,33.8347826 25.8994712,33.5652174 Z M28.2504122,32.5043478 C28.2504122,31.626087 28.7171206,31.0043478 29.5236254,31.0043478 C29.855234,31.0043478 30.1336214,31.126087 30.3301302,31.3043478 L30.0681185,31.7695652 C29.9207369,31.6217391 29.7651674,31.5391304 29.5236254,31.5391304 C29.1101382,31.5391304 28.8399386,31.9173913 28.8399386,32.3782609 C28.8399386,32.4 28.8399386,32.4217391 28.8440325,32.4391304 C28.9709444,32.2434783 29.245238,32.0695652 29.5440951,32.0695652 C30.035367,32.0695652 30.4734179,32.3869565 30.4734179,33.0043478 C30.4734179,33.5695652 30.0517428,34 29.4294649,34 C28.5983965,34 28.2504122,33.3217391 28.2504122,32.5043478 Z M29.8838915,33.0304348 C29.8838915,32.7173913 29.6423495,32.5826087 29.3762438,32.5826087 C29.1715472,32.5826087 28.9750384,32.6913043 28.8440325,32.8608696 C28.8685961,33.1391304 29.0159777,33.4608696 29.4008074,33.4608696 C29.7160403,33.4608696 29.8838915,33.2347826 29.8838915,33.0304348 Z M31.0189344,33.9478261 L31.9973844,31.5913043 L30.6218229,31.5913043 L30.6218229,31.0478261 L32.6728834,31.0478261 L32.6728834,31.4782609 L31.657588,33.9478261 L31.0189344,33.9478261 Z M32.8171945,32.5 C32.8171945,31.7521739 33.1651788,31.0043478 33.94712,31.0043478 C34.7249673,31.0043478 35.0770455,31.7521739 35.0770455,32.5 C35.0770455,33.2478261 34.7249673,34 33.94712,34 C33.1651788,34 32.8171945,33.2478261 32.8171945,32.5 Z M34.4834253,32.5 C34.4834253,31.9652174 34.3360437,31.5521739 33.94712,31.5521739 C33.5541025,31.5521739 33.4067209,31.9652174 33.4067209,32.5 C33.4067209,33.0347826 33.5541025,33.4521739 33.94712,33.4521739 C34.3360437,33.4521739 34.4834253,33.0347826 34.4834253,32.5 Z M35.2786717,32.5 C35.2786717,31.7521739 35.626656,31.0043478 36.4085973,31.0043478 C37.1864445,31.0043478 37.5385228,31.7521739 37.5385228,32.5 C37.5385228,33.2478261 37.1864445,34 36.4085973,34 C35.626656,34 35.2786717,33.2478261 35.2786717,32.5 Z M36.9449025,32.5 C36.9449025,31.9652174 36.7975209,31.5521739 36.4085973,31.5521739 C36.0155797,31.5521739 35.8681981,31.9652174 35.8681981,32.5 C35.8681981,33.0347826 36.0155797,33.4521739 36.4085973,33.4521739 C36.7975209,33.4521739 36.9449025,33.0347826 36.9449025,32.5 Z M37.740149,32.5 C37.740149,31.7521739 38.0881333,31.0043478 38.8700745,31.0043478 C39.6479218,31.0043478 40,31.7521739 40,32.5 C40,33.2478261 39.6479218,34 38.8700745,34 C38.0881333,34 37.740149,33.2478261 37.740149,32.5 Z M39.4063797,32.5 C39.4063797,31.9652174 39.2589981,31.5521739 38.8700745,31.5521739 C38.4770569,31.5521739 38.3296753,31.9652174 38.3296753,32.5 C38.3296753,33.0347826 38.4770569,33.4521739 38.8700745,33.4521739 C39.2589981,33.4521739 39.4063797,33.0347826 39.4063797,32.5 Z" id="bar-number" fill="#4E5458"></path>
                        </g>
                    </g>
                </g>
                <path d="M1.5,166.5 L86.5,166.5 L86.5,10 C86.5,9.72385763 86.2761424,9.5 86,9.5 L2,9.5 C1.72385763,9.5 1.5,9.72385763 1.5,10 L1.5,166.5 Z" id="building-front" stroke="#4E5458" stroke-width="3" fill="#E6E9EC"></path>
                <path d="M26,144 L62,144 C62.5522847,144 63,144.447715 63,145 L63,165 L25,165 L25,145 C25,144.447715 25.4477153,144 26,144 Z" id="Door" fill="#AFB6BC"></path>
                <path d="M27.5,146 L43,146 L43,165 L27,165 L27,146.5 C27,146.223858 27.2238576,146 27.5,146 Z" id="Rectangle" fill="#BFC5CB"></path>
                <path d="M45,146 L60.5,146 C60.7761424,146 61,146.223858 61,146.5 L61,165 L45,165 L45,146 Z" id="Rectangle-Copy" fill="#BFC5CB"></path>
                <rect id="window" stroke="#AFB6BC" stroke-width="2" fill="#BFC5CB" x="12" y="19" width="8" height="10" rx="1"></rect>
                <rect id="window" stroke="#AFB6BC" stroke-width="2" fill="#BFC5CB" x="12" y="37" width="8" height="10" rx="1"></rect>
                <rect id="window" stroke="#AFB6BC" stroke-width="2" fill="#BFC5CB" x="12" y="55" width="8" height="10" rx="1"></rect>
                <rect id="window" stroke="#AFB6BC" stroke-width="2" fill="#BFC5CB" x="12" y="73" width="8" height="10" rx="1"></rect>
                <rect id="window" stroke="#AFB6BC" stroke-width="2" fill="#BFC5CB" x="12" y="91" width="8" height="10" rx="1"></rect>
                <rect id="window" stroke="#AFB6BC" stroke-width="2" fill="#BFC5CB" x="12" y="109" width="8" height="10" rx="1"></rect>
                <rect id="window" stroke="#AFB6BC" stroke-width="2" fill="#BFC5CB" x="12" y="127" width="8" height="10" rx="1"></rect>
                <rect id="window" stroke="#AFB6BC" stroke-width="2" fill="#BFC5CB" x="26" y="19" width="8" height="10" rx="1"></rect>
                <rect id="window" stroke="#AFB6BC" stroke-width="2" fill="#BFC5CB" x="26" y="37" width="8" height="10" rx="1"></rect>
                <rect id="window" stroke="#AFB6BC" stroke-width="2" fill="#BFC5CB" x="26" y="55" width="8" height="10" rx="1"></rect>
                <rect id="window" stroke="#AFB6BC" stroke-width="2" fill="#BFC5CB" x="26" y="73" width="8" height="10" rx="1"></rect>
                <rect id="window" stroke="#AFB6BC" stroke-width="2" fill="#BFC5CB" x="26" y="91" width="8" height="10" rx="1"></rect>
                <rect id="window" stroke="#AFB6BC" stroke-width="2" fill="#BFC5CB" x="26" y="109" width="8" height="10" rx="1"></rect>
                <rect id="window" stroke="#AFB6BC" stroke-width="2" fill="#BFC5CB" x="26" y="127" width="8" height="10" rx="1"></rect>
                <rect id="window" stroke="#AFB6BC" stroke-width="2" fill="#BFC5CB" x="40" y="19" width="8" height="10" rx="1"></rect>
                <rect id="window" stroke="#AFB6BC" stroke-width="2" fill="#BFC5CB" x="40" y="37" width="8" height="10" rx="1"></rect>
                <rect id="window" stroke="#AFB6BC" stroke-width="2" fill="#BFC5CB" x="40" y="55" width="8" height="10" rx="1"></rect>
                <rect id="window" stroke="#AFB6BC" stroke-width="2" fill="#BFC5CB" x="40" y="73" width="8" height="10" rx="1"></rect>
                <rect id="window" stroke="#AFB6BC" stroke-width="2" fill="#BFC5CB" x="40" y="91" width="8" height="10" rx="1"></rect>
                <rect id="window" stroke="#AFB6BC" stroke-width="2" fill="#BFC5CB" x="40" y="109" width="8" height="10" rx="1"></rect>
                <rect id="window" stroke="#AFB6BC" stroke-width="2" fill="#BFC5CB" x="40" y="127" width="8" height="10" rx="1"></rect>
                <rect id="window" stroke="#AFB6BC" stroke-width="2" fill="#BFC5CB" x="54" y="19" width="8" height="10" rx="1"></rect>
                <rect id="window" stroke="#AFB6BC" stroke-width="2" fill="#BFC5CB" x="54" y="37" width="8" height="10" rx="1"></rect>
                <rect id="window" stroke="#AFB6BC" stroke-width="2" fill="#BFC5CB" x="54" y="55" width="8" height="10" rx="1"></rect>
                <rect id="window" stroke="#AFB6BC" stroke-width="2" fill="#BFC5CB" x="54" y="73" width="8" height="10" rx="1"></rect>
                <rect id="window" stroke="#AFB6BC" stroke-width="2" fill="#BFC5CB" x="54" y="91" width="8" height="10" rx="1"></rect>
                <rect id="window" stroke="#AFB6BC" stroke-width="2" fill="#BFC5CB" x="54" y="109" width="8" height="10" rx="1"></rect>
                <rect id="window" stroke="#AFB6BC" stroke-width="2" fill="#BFC5CB" x="54" y="127" width="8" height="10" rx="1"></rect>
                <rect id="window" stroke="#AFB6BC" stroke-width="2" fill="#BFC5CB" x="68" y="19" width="8" height="10" rx="1"></rect>
                <rect id="window" stroke="#AFB6BC" stroke-width="2" fill="#BFC5CB" x="68" y="37" width="8" height="10" rx="1"></rect>
                <rect id="window" stroke="#AFB6BC" stroke-width="2" fill="#BFC5CB" x="68" y="55" width="8" height="10" rx="1"></rect>
                <rect id="window" stroke="#AFB6BC" stroke-width="2" fill="#BFC5CB" x="68" y="73" width="8" height="10" rx="1"></rect>
                <rect id="window" stroke="#AFB6BC" stroke-width="2" fill="#BFC5CB" x="68" y="91" width="8" height="10" rx="1"></rect>
                <rect id="window" stroke="#AFB6BC" stroke-width="2" fill="#BFC5CB" x="68" y="109" width="8" height="10" rx="1"></rect>
                <rect id="window" stroke="#AFB6BC" stroke-width="2" fill="#BFC5CB" x="68" y="127" width="8" height="10" rx="1"></rect>
            </g>
            <g id="Group-2" transform="translate(311.000000, 91.000000)">
                <path d="M4.9895412,48.6586157 C3.48588544,48.555672 2.1889025,49.6595086 2.08508267,51.1131056 L0.90668054,67.6120912 C0.803010697,69.0635883 1.92743082,70.3299944 3.42905384,70.4327989 L7.64203775,70.7212293 C9.14569351,70.8241729 10.4426765,69.7203364 10.5464963,68.2667394 L11.7248984,51.7677538 C11.8285683,50.3162567 10.7041481,49.0498506 9.20252511,48.9470461 L4.9895412,48.6586157 Z" id="Rectangle-16" stroke="#3A3D40" stroke-width="1.79999989" fill="#61A3BB"></path>
                <path d="M4.38752925,46.2709719 C2.88107475,46.1689142 1.58514821,47.2603284 1.4772887,48.7382244 L0.906633542,53.3291986 C0.803512197,54.7579313 1.9254874,56.0083813 3.4289243,56.1102346 L7.64254594,56.3956947 C9.14900043,56.4977525 10.444927,55.4063383 10.5527865,53.9284423 L11.1234416,49.3374681 C11.226563,47.9087354 10.1045878,46.6582853 8.60115089,46.556432 L4.38752925,46.2709719 Z" id="Rectangle-16" stroke="#3A3D40" stroke-width="1.79999989" fill="#61A3BB"></path>
                <path d="M59.9728648,48.6586157 L55.7598809,48.9470461 C54.2582579,49.0498506 53.1338378,50.3162567 53.2375076,51.7677538 L54.4159097,68.2667394 C54.5197296,69.7203364 55.8167125,70.8241729 57.3203683,70.7212293 L61.5333522,70.4327989 C63.0349752,70.3299944 64.1593953,69.0635883 64.0557255,67.6120912 L62.8773233,51.1131056 C62.7735035,49.6595086 61.4765206,48.555672 59.9728648,48.6586157 Z" id="Rectangle-16-Copy" stroke="#3A3D40" stroke-width="1.79999989" fill="#5B93A8"></path>
                <path d="M57.3198601,46.2709719 C55.8134056,46.1689142 54.517479,47.2603284 54.4096195,48.7382244 L53.8389644,53.3291986 C53.735843,54.7579313 54.8578182,56.0083813 56.3612551,56.1102346 L60.5748768,56.3956947 C62.0813313,56.4977525 63.3772578,55.4063383 63.4851173,53.9284423 L64.0557725,49.3374681 C64.1588938,47.9087354 63.0369186,46.6582853 61.5334817,46.556432 L57.3198601,46.2709719 Z" id="Rectangle-16-Copy-2" stroke="#3A3D40" stroke-width="1.79999989" fill="#5B93A8" transform="translate(58.947368, 51.333333) scale(-1, 1) translate(-58.947368, -51.333333) "></path>
                <path d="M30.956744,6.27209297 C18.7977955,6.27209297 8.72034431,15.6975717 7.90831756,27.8293746 L5.127229,69.3792594 C5.11785485,69.5193106 5.11316385,69.6596359 5.11316385,69.8000004 C5.11316385,73.2793941 7.93376976,76.1000001 11.4131635,76.1000001 L53.5489693,76.1000001 C53.6893339,76.1000001 53.8296592,76.0953091 53.9697103,76.0859349 C57.4413361,75.8535661 60.0672727,72.8508852 59.8349038,69.3792594 L57.0538153,27.8293746 C56.2417885,15.6975717 46.1643373,6.27209297 34.0053888,6.27209297 L30.956744,6.27209297 Z" id="Rectangle-12" stroke="#3A3D40" stroke-width="1.79999989" fill="#61A3BB"></path>
                <rect id="Rectangle-4" stroke="#326273" stroke-width="1.19999993" fill="#61A3BB" x="10.2240601" y="57.3054263" width="44.5142858" height="19.0945737" rx="4.79999971"></rect>
                <path d="M52.9323308,65.6589147 L52.3308271,65.6589147 L52.3308271,62.0775194 C52.3308271,60.758886 51.2536174,59.6899225 49.924812,59.6899225 L15.037594,59.6899225 C13.7087886,59.6899225 12.6315789,60.758886 12.6315789,62.0775194 L12.6315789,65.6589147 L12.0300752,65.6589147 L12.0300752,62.0775194 C12.0300752,60.4292277 13.3765872,59.0930233 15.037594,59.0930233 L49.924812,59.0930233 C51.5858188,59.0930233 52.9323308,60.4292277 52.9323308,62.0775194 L52.9323308,65.6589147 Z" id="Combined-Shape" fill="#468196" fill-rule="nonzero"></path>
                <path d="M11.9137733,61.1806202 L13.3493294,61.1806202 C13.8060884,61.1806202 14.1904167,61.5227664 14.2432812,61.9764558 L14.7294182,66.1485489 C14.7869465,66.6422649 14.4333466,67.0891366 13.9396307,67.146665 C13.8876655,67.1517034 13.8876655,67.1517034 13.8354664,67.1527132 L11.4276362,67.1527132 C10.93058,67.1527132 10.5276363,66.7497695 10.5276363,66.2527132 C10.528646,66.2005141 10.528646,66.2005141 10.5336845,66.1485489 L11.0198215,61.9764558 C11.0726859,61.5227664 11.4570143,61.1806202 11.9137733,61.1806202 Z M12.6024882,62.3775194 C12.4385153,62.3775194 12.3055889,62.5104457 12.3055889,62.6744186 C12.3055889,62.8383915 12.4385153,62.9713178 12.6024882,62.9713178 L12.6606145,62.9713178 C12.8245874,62.9713178 12.9575138,62.8383915 12.9575138,62.6744186 C12.9575138,62.5104457 12.8245874,62.3775194 12.6606145,62.3775194 L12.6024882,62.3775194 Z" id="Combined-Shape" stroke="#3A3D40" stroke-width="0.599999964" fill="#DFDEDD"></path>
                <path d="M55.3383459,29.248062 L54.7470217,29.248062 L54.6535451,27.8573088 C53.9153648,16.8745889 44.718607,8.34045674 33.6213233,8.34045674 L31.3411052,8.34045674 C20.2438214,8.34045674 11.0470636,16.8745889 10.3088833,27.8573088 L10.2154068,29.248062 L9.62406015,29.248062 L9.72015222,27.8186768 C10.4789873,16.5308813 19.9330762,7.75968992 31.3408689,7.75968992 L33.6215371,7.75968992 C45.0293298,7.75968992 54.4834187,16.5308813 55.2422538,27.8186768 L55.3383459,29.248062 Z" id="Combined-Shape" fill="#468196" fill-rule="nonzero"></path>
                <path d="M7.81954887,38.6557546 L8.15688185,34.0232558 L8.15688185,34.0649719 C8.15688185,39.9914952 12.8468194,44.7958916 18.6321506,44.7958916 L45.7446108,44.7958916 C51.529942,44.7958916 56.2198795,39.9914952 56.2198795,34.0649719 L56.2198795,34.0604411 L56.5413534,38.693783 C54.7547666,42.9560762 50.4420922,45.9612403 45.4057051,45.9612403 L18.9710563,45.9612403 C13.9197039,45.9612403 9.59637168,42.9381905 7.81954887,38.6557546 Z" id="Combined-Shape" fill="#326273" fill-rule="nonzero"></path>
                <path d="M8.41903653,33.8745036 L8.41903653,35.2875596 C8.41903653,41.3681644 13.1066965,46.2974685 18.8892181,46.2974685 L45.9885117,46.2974685 C49.3780822,46.2974685 52.3914567,44.6037532 54.3050079,41.9772524 L50.8421375,44.9353659 L46.7528938,45.6615908 C48.4136216,45.7121904 49.8467521,45.1220959 51.0522852,43.8913072 C52.860585,42.0451243 55.1164405,44.3010037 54.4897512,28.2742983 C54.0719583,17.589828 47.2527928,10.6367653 34.0322545,7.41511012 L34.0322545,6.56589147 L42.4293784,7.83614701 L49.1748108,12.2475929 L53.5216508,17.4493123 L56.2731884,24.6498086 L56.5184694,27.167129 L57.6596848,27.167129 L57.6596848,35.5366525 C57.6596848,36.3770872 57.5725847,37.1972691 57.4068811,37.9887398 L59.5488722,70.7108799 L59.5488722,72.516167 L56.0831004,76.4031008 L53.2641733,76.4031008 C53.9916984,75.6654263 54.4578651,74.5932216 54.6626734,73.1864865 C54.8674817,71.7797514 54.8674817,69.6500694 54.6626734,66.7974405 C54.4205544,63.1019457 54.2264024,60.8701316 54.0802175,60.1019984 C53.9340326,59.3338651 53.1325554,58.7531439 51.675786,58.3598346 L38.3836765,57.7948911 C38.4421811,57.7121922 38.5175058,57.6359463 38.6096507,57.5661532 L38.3831588,57.5661532 L38.3831588,54.9786261 L37.9120839,54.214598 L36.2862941,54.214598 L35.8156136,51.0342227 L34.7023074,49.6166874 L34.3728376,47.4931148 L19.2279593,47.4931148 C12.5950669,47.4931148 7.21804511,42.1400243 7.21804511,35.5366525 L7.21804511,27.167129 L8.41903653,27.167129 L8.41903653,32.6210115 L8.94982494,32.8157348 L10.3411902,32.8157348 L11.9588694,32.6141693 L11.9588694,32.1770774 L11.9588694,27.7429522 C12.6877701,30.6839418 13.0522204,32.3076809 13.0522204,32.6141693 C13.0522204,33.073902 12.3055263,33.8745036 11.9588694,33.8745036 C11.7284368,33.8745036 10.5484925,33.8745036 8.41903653,33.8745036 Z M54.81968,41.2045776 L55.3801126,40.1601472 C55.2110204,40.5198415 55.0237907,40.8684254 54.81968,41.2045776 Z M36.0711284,47.4931148 C37.2936755,48.3306493 38.0643523,49.188551 38.3831588,50.0668201 C38.7236314,51.0047766 38.9037927,51.8518428 38.9236427,52.6080187 C40.0566674,53.0507572 40.6231797,53.7024321 40.6231797,54.5630435 L40.6231797,57.0308257 C40.9154438,57.0102771 41.2344891,57.0000028 41.5803154,57.0000028 C44.2146177,57.0000028 50.4356899,56.0441895 51.0223193,54.6276286 C51.411632,53.6875374 51.1567259,51.0054872 50.2576011,46.5814777 C48.8386949,47.1688461 47.2822705,47.4931148 45.6497706,47.4931148 L36.0711284,47.4931148 Z M35.4127648,50.9670856 C35.0870153,52.1642986 34.5588882,52.7629052 33.8283838,52.7629052 C33.0978793,52.7629052 32.0311087,52.7629052 30.6280721,52.7629052 L30.6280721,53.8345469 L28.6930963,53.8345469 L28.6930963,50.9670856 L30.6280721,49.0752718 L30.6280721,50.9670856 L33.487451,50.9670856 L34.2608103,50.6732135 L34.2608103,49.6936399 L35.4127648,50.9670856 Z M10.8023685,68.5482441 L10.8023685,67.2879098 L11.3518078,67.4894752 L12.743173,67.4894752 L14.3608523,67.2879098 L14.3608523,66.8508178 L14.3608523,62.4166927 C15.0897529,65.3576823 15.4542032,66.9814213 15.4542032,67.2879098 C15.4542032,67.7476425 14.7075091,68.5482441 14.3608523,68.5482441 C14.1297477,68.5482441 12.9435865,68.5482441 10.8023685,68.5482441 Z" id="Bag-shadows" fill-opacity="0.152315444" fill="#3A3D40" fill-rule="nonzero"></path>
                <path d="M32.481203,0 C35.1388138,-4.84458036e-16 37.2932331,2.13792709 37.2932331,4.7751938 L37.2932331,6.56589147 L27.6691729,6.56589147 L27.6691729,4.7751938 C27.6691729,2.13792709 29.8235922,4.84458036e-16 32.481203,0 Z M29.4736842,6.56589147 L35.4887218,6.56589147 L35.4887218,4.7751938 C35.4887218,3.1269021 34.1422098,1.79069767 32.481203,1.79069767 C30.8201962,1.79069767 29.4736842,3.1269021 29.4736842,4.7751938 L29.4736842,6.56589147 Z" id="Rectangle-13" fill="#3A3D40" fill-rule="nonzero"></path>
                <path d="M32.481203,47.1550388 C35.1388138,47.1550388 37.2932331,49.2929658 37.2932331,51.9302326 L37.2932331,53.7209302 L27.6691729,53.7209302 L27.6691729,51.9302326 C27.6691729,49.2929658 29.8235922,47.1550388 32.481203,47.1550388 Z M29.4736842,53.7209302 L35.4887218,53.7209302 L35.4887218,51.9302326 C35.4887218,50.2819409 34.1422098,48.9457364 32.481203,48.9457364 C30.8201962,48.9457364 29.4736842,50.2819409 29.4736842,51.9302326 L29.4736842,53.7209302 Z" id="Rectangle-13" fill="#3A3D40" fill-rule="nonzero"></path>
                <ellipse id="Oval-3" fill="#468196" cx="30.6766917" cy="37.0077519" rx="1" ry="1"></ellipse>
                <ellipse id="Oval-3-Copy" fill="#468196" cx="32.481203" cy="37.0077519" rx="1" ry="1"></ellipse>
                <ellipse id="Oval-3-Copy-2" fill="#468196" cx="34.2857143" cy="37.0077519" rx="1" ry="1"></ellipse>
                <path d="M9.50775824,26.5604651 L10.9433144,26.5604651 C11.4000733,26.5604651 11.7844017,26.9026114 11.8372661,27.3563008 L12.3234031,31.5283939 C12.3809315,32.0221098 12.0273316,32.4689816 11.5336157,32.5265099 C11.4816505,32.5315484 11.4816505,32.5315484 11.4294514,32.5325581 L9.0216212,32.5325581 C8.52456496,32.5325581 8.12162126,32.1296144 8.12162126,31.6325582 C8.12263099,31.5803591 8.12263099,31.5803591 8.12766947,31.5283939 L8.6138065,27.3563008 C8.66667091,26.9026114 9.05099929,26.5604651 9.50775824,26.5604651 Z M10.1964731,27.7573643 C10.0325002,27.7573643 9.8995739,27.8902906 9.8995739,28.0542636 C9.8995739,28.2182365 10.0325002,28.3511628 10.1964731,28.3511628 L10.2545995,28.3511628 C10.4185724,28.3511628 10.5514987,28.2182365 10.5514987,28.0542636 C10.5514987,27.8902906 10.4185724,27.7573643 10.2545995,27.7573643 L10.1964731,27.7573643 Z" id="Combined-Shape" stroke="#3A3D40" stroke-width="0.599999964" fill="#DFDEDD"></path>
                <rect id="Rectangle-2-Copy" stroke="#3A3D40" stroke-width="1.19999993" fill="#DFDEDD" x="26.4646616" y="53.724031" width="12.0330828" height="11.3348838" rx="1.79999989"></rect>
                <path d="M32.192854,59.5710659 C31.6551394,59.3436469 31.2781955,58.8143437 31.2781955,58.1976744 C31.2781955,57.3735286 31.9514515,56.7054264 32.7819549,56.7054264 C33.6124583,56.7054264 34.2857143,57.3735286 34.2857143,58.1976744 C34.2857143,58.8143437 33.9087704,59.3436469 33.3710557,59.5710659 C33.3791867,59.6104453 33.3834586,59.6512354 33.3834586,59.6930232 L33.3834586,61.4775194 C33.3834586,61.8088902 33.1148295,62.0775194 32.7834587,62.0775194 L32.7804511,62.0775194 C32.4490803,62.0775194 32.1804511,61.8088902 32.1804511,61.4775194 L32.1804511,59.6930232 C32.1804511,59.6512354 32.1847231,59.6104453 32.192854,59.5710659 Z" id="Combined-Shape" fill="#3A3D40"></path>
                <rect id="Rectangle-2" stroke="#326273" stroke-width="1.19999993" fill="#61A3BB" x="30.6751879" y="38.8015504" width="3.61203015" height="11.931783" rx="1.19999993"></rect>
                <g id="Group" transform="translate(38.496241, 4.775194)">
                    <path d="M2.52631579,2.09368339 C3.18699208,0.232631487 4.42887924,-0.387719146 6.25197727,0.232631487 C8.98662432,1.16315744 9.27655795,8.44315457 8.55791412,12.5492714 C7.8392703,16.6553882 3.89910976,25.5521171 5.28745131,27.650647 C6.21301235,29.0496669 8.31587089,28.3519625 11.596027,25.5575338" id="Path-7" stroke="#3A3D40" stroke-width="1.07999987" stroke-linecap="round"></path>
                    <g id="Tag" transform="translate(15.389869, 36.638351) rotate(-30.000000) translate(-15.389869, -36.638351) translate(6.668065, 21.118972)">
                        <path d="M0.954494369,8.85207215 C0.687617474,9.14935696 0.539999936,9.53477023 0.539999936,9.93427184 L0.539999936,28.3882168 C0.539999936,29.282918 1.26529855,30.0082166 2.15999974,30.0082166 L15.1633085,30.0082166 C16.0580097,30.0082166 16.7833083,29.282918 16.7833083,28.3882168 L16.7833083,9.93427184 C16.7833083,9.53477023 16.6356908,9.14935696 16.3688139,8.85207215 L9.06904414,0.72056763 C9.05499782,0.704920877 9.04002181,0.690092099 9.02419207,0.676159553 C8.79948555,0.478384108 8.45358974,0.498530886 8.25426413,0.72056763 L0.954494369,8.85207215 Z" id="tag-outline" stroke="#3A3D40" stroke-width="1.07999987"></path>
                        <path d="M1.35618841,9.20992339 C1.1800189,9.40616563 1.08270677,9.65959963 1.08270677,9.9221629 L1.08270677,28.4040917 C1.08270677,28.9961754 1.5674511,29.4761541 2.16541353,29.4761541 L15.1578947,29.4761541 C15.7558572,29.4761541 16.2406015,28.9961754 16.2406015,28.4040917 L16.2406015,9.9221629 C16.2406015,9.65959963 16.1432894,9.40616563 15.9671199,9.20992339 L8.66165414,1.07207391 L1.35618841,9.20992339 Z" id="tag" fill="#F5F8FA" fill-rule="nonzero"></path>
                        <g id="Group-4" transform="translate(4.815139, 11.984579)">
                            <rect id="Rectangle-18" stroke="#3A3D40" stroke-width="0.599999964" fill="#989898" x="1.5030075" y="1.49379843" width="4.81353387" height="4.77209306" rx="0.599999964"></rect>
                            <rect id="Rectangle-6" fill="#3A3D40" x="1.80451128" y="0" width="1" height="1.19379845"></rect>
                            <rect id="Rectangle-6-Copy" fill="#3A3D40" x="1.80451128" y="6.56589147" width="1" height="1.19379845"></rect>
                            <rect id="Rectangle-7" fill="#3A3D40" x="0" y="1.79069767" width="1.20300752" height="1"></rect>
                            <rect id="Rectangle-7-Copy-4" fill="#3A3D40" x="6.61654135" y="1.79069767" width="1.20300752" height="1"></rect>
                            <rect id="Rectangle-7-Copy" fill="#3A3D40" x="0" y="2.98449612" width="1.20300752" height="1"></rect>
                            <rect id="Rectangle-7-Copy-5" fill="#3A3D40" x="6.61654135" y="2.98449612" width="1.20300752" height="1"></rect>
                            <rect id="Rectangle-7-Copy-2" fill="#3A3D40" x="0" y="4.17829457" width="1.20300752" height="1"></rect>
                            <rect id="Rectangle-7-Copy-6" fill="#3A3D40" x="6.61654135" y="4.17829457" width="1.20300752" height="1"></rect>
                            <rect id="Rectangle-7-Copy-3" fill="#3A3D40" x="0" y="5.37209302" width="1.20300752" height="1"></rect>
                            <rect id="Rectangle-7-Copy-7" fill="#3A3D40" x="6.61654135" y="5.37209302" width="1.20300752" height="1"></rect>
                            <rect id="Rectangle-6" fill="#3A3D40" x="3.0075188" y="0" width="1" height="1.19379845"></rect>
                            <rect id="Rectangle-6-Copy-2" fill="#3A3D40" x="3.0075188" y="6.56589147" width="1" height="1.19379845"></rect>
                            <rect id="Rectangle-6" fill="#3A3D40" x="4.21052632" y="0" width="1" height="1.19379845"></rect>
                            <rect id="Rectangle-6-Copy-3" fill="#3A3D40" x="4.21052632" y="6.56589147" width="1" height="1.19379845"></rect>
                            <rect id="Rectangle-6" fill="#3A3D40" x="5.41353383" y="0" width="1" height="1.19379845"></rect>
                            <rect id="Rectangle-6-Copy-4" fill="#3A3D40" x="5.41353383" y="6.56589147" width="1" height="1.19379845"></rect>
                        </g>
                        <path d="M5.11451678,22.4422625 C5.20448798,22.4422625 5.27742404,22.5151986 5.27742404,22.6051698 L5.27742404,27.6501983 C5.27742404,27.7401695 5.20448798,27.8131056 5.11451678,27.8131056 C5.02454558,27.8131056 4.95160951,27.7401695 4.95160951,27.6501983 L4.95160951,22.6051698 C4.95160951,22.5151986 5.02454558,22.4422625 5.11451678,22.4422625 Z M6.41777492,22.4422625 C6.50774612,22.4422625 6.58068219,22.5151986 6.58068219,22.6051698 L6.58068219,27.6501983 C6.58068219,27.7401695 6.50774612,27.8131056 6.41777492,27.8131056 C6.32780372,27.8131056 6.25486765,27.7401695 6.25486765,27.6501983 L6.25486765,22.6051698 C6.25486765,22.5151986 6.32780372,22.4422625 6.41777492,22.4422625 Z M7.06940399,22.4422625 C7.15937519,22.4422625 7.23231126,22.5151986 7.23231126,22.6051698 L7.23231126,27.6501983 C7.23231126,27.7401695 7.15937519,27.8131056 7.06940399,27.8131056 C6.97943279,27.8131056 6.90649673,27.7401695 6.90649673,27.6501983 L6.90649673,22.6051698 C6.90649673,22.5151986 6.97943279,22.4422625 7.06940399,22.4422625 Z M8.0468476,22.4422625 C8.1368188,22.4422625 8.20975487,22.5151986 8.20975487,22.6051698 L8.20975487,27.6501983 C8.20975487,27.7401695 8.1368188,27.8131056 8.0468476,27.8131056 C7.9568764,27.8131056 7.88394034,27.7401695 7.88394034,27.6501983 L7.88394034,22.6051698 C7.88394034,22.5151986 7.9568764,22.4422625 8.0468476,22.4422625 Z M8.69847668,22.4422625 C8.78844788,22.4422625 8.86138394,22.5151986 8.86138394,22.6051698 L8.86138394,27.6501983 C8.86138394,27.7401695 8.78844788,27.8131056 8.69847668,27.8131056 C8.60850548,27.8131056 8.53556941,27.7401695 8.53556941,27.6501983 L8.53556941,22.6051698 C8.53556941,22.5151986 8.60850548,22.4422625 8.69847668,22.4422625 Z M9.67592029,22.4422625 C9.76589149,22.4422625 9.83882755,22.5151986 9.83882755,22.6051698 L9.83882755,27.6501983 C9.83882755,27.7401695 9.76589149,27.8131056 9.67592029,27.8131056 C9.58594909,27.8131056 9.51301302,27.7401695 9.51301302,27.6501983 L9.51301302,22.6051698 C9.51301302,22.5151986 9.58594909,22.4422625 9.67592029,22.4422625 Z M10.0831885,22.4422625 C10.1281741,22.4422625 10.1646421,22.4787306 10.1646421,22.5237162 L10.1646421,27.7316519 C10.1646421,27.7766375 10.1281741,27.8131056 10.0831885,27.8131056 C10.0382029,27.8131056 10.0017348,27.7766375 10.0017348,27.7316519 L10.0017348,22.5237162 C10.0017348,22.4787306 10.0382029,22.4422625 10.0831885,22.4422625 Z M10.7348175,22.4422625 C10.7798031,22.4422625 10.8162712,22.4787306 10.8162712,22.5237162 L10.8162712,27.7316519 C10.8162712,27.7766375 10.7798031,27.8131056 10.7348175,27.8131056 C10.6898319,27.8131056 10.6533639,27.7766375 10.6533639,27.7316519 L10.6533639,22.5237162 C10.6533639,22.4787306 10.6898319,22.4422625 10.7348175,22.4422625 Z M11.1420857,22.4422625 C11.2320569,22.4422625 11.304993,22.5151986 11.304993,22.6051698 L11.304993,27.6501983 C11.304993,27.7401695 11.2320569,27.8131056 11.1420857,27.8131056 C11.0521145,27.8131056 10.9791784,27.7401695 10.9791784,27.6501983 L10.9791784,22.6051698 C10.9791784,22.5151986 11.0521145,22.4422625 11.1420857,22.4422625 Z M11.7937148,22.4422625 C11.883686,22.4422625 11.956622,22.5151986 11.956622,22.6051698 L11.956622,27.6501983 C11.956622,27.7401695 11.883686,27.8131056 11.7937148,27.8131056 C11.7037436,27.8131056 11.6308075,27.7401695 11.6308075,27.6501983 L11.6308075,22.6051698 C11.6308075,22.5151986 11.7037436,22.4422625 11.7937148,22.4422625 Z M12.6082511,22.4422625 C12.6982223,22.4422625 12.7711584,22.5151986 12.7711584,22.6051698 L12.7711584,27.6501983 C12.7711584,27.7401695 12.6982223,27.8131056 12.6082511,27.8131056 C12.5182799,27.8131056 12.4453438,27.7401695 12.4453438,27.6501983 L12.4453438,22.6051698 C12.4453438,22.5151986 12.5182799,22.4422625 12.6082511,22.4422625 Z M5.68469222,22.4422625 C5.72967782,22.4422625 5.76614585,22.4787306 5.76614585,22.5237162 L5.76614585,27.7329019 C5.76614585,27.7778875 5.72967782,27.8143556 5.68469222,27.8143556 C5.63970662,27.8143556 5.60323858,27.7778875 5.60323858,27.7329019 L5.60323858,22.5237162 C5.60323858,22.4787306 5.63970662,22.4422625 5.68469222,22.4422625 Z M6.01050675,22.4422625 C6.05549235,22.4422625 6.09196039,22.4787306 6.09196039,22.5237162 L6.09196039,27.7329019 C6.09196039,27.7778875 6.05549235,27.8143556 6.01050675,27.8143556 C5.96552115,27.8143556 5.92905312,27.7778875 5.92905312,27.7329019 L5.92905312,22.5237162 C5.92905312,22.4787306 5.96552115,22.4422625 6.01050675,22.4422625 Z M7.63957943,22.4422625 C7.68456503,22.4422625 7.72103307,22.4787306 7.72103307,22.5237162 L7.72103307,27.7316519 C7.72103307,27.7766375 7.68456503,27.8131056 7.63957943,27.8131056 C7.59459383,27.8131056 7.5581258,27.7766375 7.5581258,27.7316519 L7.5581258,22.5237162 C7.5581258,22.4787306 7.59459383,22.4422625 7.63957943,22.4422625 Z" id="bar-code" fill="#3A3D40"></path>
                        <path d="M8.66165414,8.04046818 C7.46572926,8.04046818 6.4962406,7.08051078 6.4962406,5.89634333 C6.4962406,4.71217587 7.46572926,3.75221848 8.66165414,3.75221848 C9.85757901,3.75221848 10.8270677,4.71217587 10.8270677,5.89634333 C10.8270677,7.08051078 9.85757901,8.04046818 8.66165414,8.04046818 Z M8.66165414,6.96840575 C9.25961657,6.96840575 9.7443609,6.48842706 9.7443609,5.89634333 C9.7443609,5.3042596 9.25961657,4.82428091 8.66165414,4.82428091 C8.0636917,4.82428091 7.57894737,5.3042596 7.57894737,5.89634333 C7.57894737,6.48842706 8.0636917,6.96840575 8.66165414,6.96840575 Z" id="hole" fill="#3A3D40" fill-rule="nonzero"></path>
                        <path d="M8.66165414,6.96840575 C9.25961657,6.96840575 9.7443609,6.48842706 9.7443609,5.89634333 C9.7443609,5.3042596 9.25961657,4.82428091 8.66165414,4.82428091 C8.0636917,4.82428091 7.57894737,5.3042596 7.57894737,5.89634333 C7.57894737,6.48842706 8.0636917,6.96840575 8.66165414,6.96840575 Z" id="hole" fill="#62A2CD" fill-rule="nonzero"></path>
                    </g>
                    <path d="M9.77873557,28.0941409 C9.50427024,28.211544 9.18565315,28.0864073 9.06708439,27.8146403 C8.94851563,27.5428733 9.07489477,27.2273886 9.3493601,27.1099856 C11.063349,26.3768234 11.7629974,25.7096118 11.6546755,25.218315 C11.5393423,24.6952181 11.2444308,24.5468847 10.4991399,24.7176177 C10.2078528,24.7843465 9.91708648,24.6046275 9.84969518,24.3162041 C9.78230388,24.0277807 9.9638073,23.739873 10.2550944,23.6731442 C11.5483391,23.3768845 12.4577307,23.8342869 12.712468,24.9896544 C12.9742166,26.1768219 11.9275157,27.174996 9.77873557,28.0941409 Z" id="String" fill="#3A3D40" fill-rule="nonzero"></path>
                </g>
                <g id="Group-3" opacity="0.445200893" transform="translate(26.766917, 15.071705)" fill="#95EC47">
                    <path d="M27.2242249,34.5007752 C22.819144,34.5007752 19.2481203,30.9731955 19.2481203,26.6217054 C19.2481203,22.2702154 22.819144,18.7426357 27.2242249,18.7426357 C31.6293059,18.7426357 35.2003296,22.2702154 35.2003296,26.6217054 C35.2003296,30.9731955 31.6293059,34.5007752 27.2242249,34.5007752 Z M27.2242249,33.0682171 C30.8283821,33.0682171 33.7501287,30.1820155 33.7501287,26.6217054 C33.7501287,23.0613954 30.8283821,20.1751938 27.2242249,20.1751938 C23.6200678,20.1751938 20.6983211,23.0613954 20.6983211,26.6217054 C20.6983211,30.1820155 23.6200678,33.0682171 27.2242249,33.0682171 Z" id="Combined-Shape"></path>
                    <path d="M26.8863941,39.7534884 C19.6780798,39.7534884 13.8345865,33.9810852 13.8345865,26.8604651 C13.8345865,19.739845 19.6780798,13.9674419 26.8863941,13.9674419 C34.0947084,13.9674419 39.9382017,19.739845 39.9382017,26.8604651 C39.9382017,33.9810852 34.0947084,39.7534884 26.8863941,39.7534884 Z M26.8863941,38.3209302 C33.2937846,38.3209302 38.4880008,33.1899052 38.4880008,26.8604651 C38.4880008,20.531025 33.2937846,15.4 26.8863941,15.4 C20.4790036,15.4 15.2847873,20.531025 15.2847873,26.8604651 C15.2847873,33.1899052 20.4790036,38.3209302 26.8863941,38.3209302 Z" id="Combined-Shape"></path>
                    <path d="M27.1500669,45.0062016 C17.1385193,45.0062016 9.02255639,36.988975 9.02255639,27.0992248 C9.02255639,17.2094746 17.1385193,9.19224806 27.1500669,9.19224806 C37.1616146,9.19224806 45.2775775,17.2094746 45.2775775,27.0992248 C45.2775775,36.988975 37.1616146,45.0062016 27.1500669,45.0062016 Z M27.1500669,43.5736434 C36.3606908,43.5736434 43.8273767,36.197795 43.8273767,27.0992248 C43.8273767,18.0006546 36.3606908,10.6248062 27.1500669,10.6248062 C17.9394431,10.6248062 10.4727572,18.0006546 10.4727572,27.0992248 C10.4727572,36.197795 17.9394431,43.5736434 27.1500669,43.5736434 Z" id="Combined-Shape"></path>
                    <path d="M26.4661654,52.5271318 C11.8493059,52.5271318 0,40.821981 0,26.3829457 C0,11.9439105 11.8493059,0.23875969 26.4661654,0.23875969 C41.083025,0.23875969 52.9323308,11.9439105 52.9323308,26.3829457 C52.9323308,40.821981 41.083025,52.5271318 26.4661654,52.5271318 Z M26.4661654,51.0945736 C40.2821011,51.0945736 51.48213,40.030801 51.48213,26.3829457 C51.48213,12.7350905 40.2821011,1.67131783 26.4661654,1.67131783 C12.6502297,1.67131783 1.45020084,12.7350905 1.45020084,26.3829457 C1.45020084,40.030801 12.6502297,51.0945736 26.4661654,51.0945736 Z" id="Combined-Shape"></path>
                </g>
            </g>
        </g>
        <rect id="Rectangle-22" fill="#3A3D40" x="16" y="197" width="404" height="3" rx="1.5"></rect>
    </g>
</svg>